<svg version="1.1" baseProfile="full" id="body" width="30.236in" height="20.157in" viewBox="0 0 9071 6047" preserveAspectRatio="none" xmlns="http://www.w3.org/2000/svg" xmlnsXlink="http://www.w3.org/1999/xlink">
<rect id="background" x="0" y="0" width="9071" height="6047" stroke="none" fill="white"/>
<line x1="4535" y1="4175" x2="4597" y2="4211" stroke="black" stroke-width="2" stroke-linecap="round" fill="none" />
<line x1="4689" y1="4264" x2="4751" y2="4299" stroke="black" stroke-width="2" stroke-linecap="round" fill="none" />
<line x1="4843" y1="4353" x2="4904" y2="4388" stroke="black" stroke-width="2" stroke-linecap="round" fill="none" />
<line x1="4996" y1="4441" x2="5057" y2="4477" stroke="black" stroke-width="2" stroke-linecap="round" fill="none" />
<line x1="5149" y1="4530" x2="5211" y2="4565" stroke="black" stroke-width="2" stroke-linecap="round" fill="none" />
<line x1="5303" y1="4618" x2="5364" y2="4654" stroke="black" stroke-width="2" stroke-linecap="round" fill="none" />
<line x1="5456" y1="4707" x2="5518" y2="4742" stroke="black" stroke-width="2" stroke-linecap="round" fill="none" />
<line x1="5610" y1="4795" x2="5671" y2="4831" stroke="black" stroke-width="2" stroke-linecap="round" fill="none" />
<line x1="5763" y1="4884" x2="5825" y2="4920" stroke="black" stroke-width="2" stroke-linecap="round" fill="none" />
<line x1="6307" y1="5195" x2="6373" y2="5234" stroke="black" stroke-width="2" stroke-linecap="round" fill="none" />
<line x1="6464" y1="5288" x2="6529" y2="5326" stroke="black" stroke-width="2" stroke-linecap="round" fill="none" />
<line x1="4535" y1="4175" x2="4455" y2="4221" stroke="black" stroke-width="2" stroke-linecap="round" fill="none" />
<line x1="4363" y1="4274" x2="4302" y2="4310" stroke="black" stroke-width="2" stroke-linecap="round" fill="none" />
<line x1="4210" y1="4363" x2="4148" y2="4398" stroke="black" stroke-width="2" stroke-linecap="round" fill="none" />
<line x1="4056" y1="4451" x2="3995" y2="4487" stroke="black" stroke-width="2" stroke-linecap="round" fill="none" />
<line x1="3903" y1="4540" x2="3841" y2="4575" stroke="black" stroke-width="2" stroke-linecap="round" fill="none" />
<line x1="3749" y1="4629" x2="3688" y2="4664" stroke="black" stroke-width="2" stroke-linecap="round" fill="none" />
<line x1="3596" y1="4717" x2="3535" y2="4753" stroke="black" stroke-width="2" stroke-linecap="round" fill="none" />
<line x1="3443" y1="4806" x2="3381" y2="4841" stroke="black" stroke-width="2" stroke-linecap="round" fill="none" />
<line x1="3289" y1="4894" x2="3209" y2="4940" stroke="black" stroke-width="2" stroke-linecap="round" fill="none" />
<line x1="2729" y1="5218" x2="2681" y2="5246" stroke="black" stroke-width="2" stroke-linecap="round" fill="none" />
<line x1="2589" y1="5299" x2="2541" y2="5326" stroke="black" stroke-width="2" stroke-linecap="round" fill="none" />
<line x1="5277" y1="3746" x2="5854" y2="3414" stroke="black" stroke-width="2" stroke-linecap="round" fill="none" />
<line x1="3796" y1="3748" x2="3219" y2="3415" stroke="black" stroke-width="2" stroke-linecap="round" fill="none" />
<polygon points="2278,5473 2347,5379 2307,5379 2273,5426 2270,5431 2262,5442 2258,5448 2255,5443 2248,5432 2244,5425 2213,5379 2171,5379 2238,5475 2165,5579 2206,5579 2259,5500 2270,5516 2311,5579 2353,5579 " stroke="none" fill="black" />
<polygon points="6857,5640 6863,5636 6869,5632 6879,5620 6883,5611 6887,5605 6896,5582 6903,5566 6979,5362 6945,5362 6902,5479 6898,5490 6891,5513 6888,5525 6885,5512 6878,5489 6874,5478 6832,5362 6795,5362 6871,5563 6870,5566 6869,5570 6868,5571 6865,5581 6859,5594 6858,5596 6856,5600 6850,5605 6847,5607 6843,5609 6834,5611 6824,5611 6815,5609 6809,5608 6813,5640 6819,5642 6830,5644 6843,5644 " stroke="none" fill="black" />
<line x1="5136" y1="3828" x2="5136" y2="1986" stroke="black" stroke-width="7" stroke-linecap="round" fill="none" />
<line x1="3937" y1="3830" x2="3937" y2="1987" stroke="black" stroke-width="7" stroke-linecap="round" fill="none" />
<line x1="3570" y1="1776" x2="3219" y2="3415" stroke="black" stroke-width="7" stroke-linecap="round" fill="none" />
<line x1="5503" y1="1774" x2="5854" y2="3414" stroke="black" stroke-width="7" stroke-linecap="round" fill="none" />
<line x1="6671" y1="5408" x2="6566" y2="5263" stroke="black" stroke-width="2" stroke-linecap="round" fill="none" />
<line x1="6671" y1="5408" x2="6493" y2="5390" stroke="black" stroke-width="2" stroke-linecap="round" fill="none" />
<line x1="6493" y1="5390" x2="6566" y2="5263" stroke="black" stroke-width="2" stroke-linecap="round" fill="none" />
<line x1="2405" y1="5417" x2="2582" y2="5388" stroke="black" stroke-width="2" stroke-linecap="round" fill="none" />
<line x1="2405" y1="5417" x2="2500" y2="5265" stroke="black" stroke-width="2" stroke-linecap="round" fill="none" />
<line x1="2500" y1="5265" x2="2582" y2="5388" stroke="black" stroke-width="2" stroke-linecap="round" fill="none" />
<line x1="5854" y1="3414" x2="5277" y2="3746" stroke="black" stroke-width="7" stroke-linecap="round" fill="none" />
<line x1="5136" y1="3828" x2="5312" y2="3799" stroke="black" stroke-width="7" stroke-linecap="round" fill="none" />
<line x1="5136" y1="3828" x2="5230" y2="3676" stroke="black" stroke-width="7" stroke-linecap="round" fill="none" />
<line x1="5230" y1="3676" x2="5312" y2="3799" stroke="black" stroke-width="7" stroke-linecap="round" fill="none" />
<line x1="5277" y1="1904" x2="5503" y2="1774" stroke="black" stroke-width="7" stroke-linecap="round" fill="none" />
<line x1="5136" y1="1986" x2="5312" y2="1956" stroke="black" stroke-width="7" stroke-linecap="round" fill="none" />
<line x1="5136" y1="1986" x2="5230" y2="1834" stroke="black" stroke-width="7" stroke-linecap="round" fill="none" />
<line x1="5230" y1="1834" x2="5312" y2="1956" stroke="black" stroke-width="7" stroke-linecap="round" fill="none" />
<line x1="5590" y1="2184" x2="5277" y2="2365" stroke="black" stroke-width="7" stroke-linecap="round" fill="none" />
<line x1="5136" y1="2446" x2="5312" y2="2417" stroke="black" stroke-width="7" stroke-linecap="round" fill="none" />
<line x1="5136" y1="2446" x2="5230" y2="2294" stroke="black" stroke-width="7" stroke-linecap="round" fill="none" />
<line x1="5230" y1="2294" x2="5312" y2="2417" stroke="black" stroke-width="7" stroke-linecap="round" fill="none" />
<line x1="5678" y1="2594" x2="5277" y2="2825" stroke="black" stroke-width="7" stroke-linecap="round" fill="none" />
<line x1="5136" y1="2907" x2="5312" y2="2878" stroke="black" stroke-width="7" stroke-linecap="round" fill="none" />
<line x1="5136" y1="2907" x2="5230" y2="2755" stroke="black" stroke-width="7" stroke-linecap="round" fill="none" />
<line x1="5230" y1="2755" x2="5312" y2="2878" stroke="black" stroke-width="7" stroke-linecap="round" fill="none" />
<line x1="5766" y1="3004" x2="5277" y2="3286" stroke="black" stroke-width="7" stroke-linecap="round" fill="none" />
<line x1="5136" y1="3368" x2="5312" y2="3338" stroke="black" stroke-width="7" stroke-linecap="round" fill="none" />
<line x1="5136" y1="3368" x2="5230" y2="3216" stroke="black" stroke-width="7" stroke-linecap="round" fill="none" />
<line x1="5230" y1="3216" x2="5312" y2="3338" stroke="black" stroke-width="7" stroke-linecap="round" fill="none" />
<line x1="3219" y1="3415" x2="3796" y2="3748" stroke="black" stroke-width="7" stroke-linecap="round" fill="none" />
<line x1="3937" y1="3830" x2="3833" y2="3684" stroke="black" stroke-width="7" stroke-linecap="round" fill="none" />
<line x1="3937" y1="3830" x2="3759" y2="3812" stroke="black" stroke-width="7" stroke-linecap="round" fill="none" />
<line x1="3759" y1="3812" x2="3833" y2="3684" stroke="black" stroke-width="7" stroke-linecap="round" fill="none" />
<line x1="3570" y1="1776" x2="3796" y2="1906" stroke="black" stroke-width="7" stroke-linecap="round" fill="none" />
<line x1="3937" y1="1987" x2="3833" y2="1842" stroke="black" stroke-width="7" stroke-linecap="round" fill="none" />
<line x1="3937" y1="1987" x2="3759" y2="1970" stroke="black" stroke-width="7" stroke-linecap="round" fill="none" />
<line x1="3759" y1="1970" x2="3833" y2="1842" stroke="black" stroke-width="7" stroke-linecap="round" fill="none" />
<line x1="3482" y1="2185" x2="3796" y2="2366" stroke="black" stroke-width="7" stroke-linecap="round" fill="none" />
<line x1="3937" y1="2448" x2="3833" y2="2303" stroke="black" stroke-width="7" stroke-linecap="round" fill="none" />
<line x1="3937" y1="2448" x2="3759" y2="2430" stroke="black" stroke-width="7" stroke-linecap="round" fill="none" />
<line x1="3759" y1="2430" x2="3833" y2="2303" stroke="black" stroke-width="7" stroke-linecap="round" fill="none" />
<line x1="3395" y1="2595" x2="3796" y2="2827" stroke="black" stroke-width="7" stroke-linecap="round" fill="none" />
<line x1="3937" y1="2909" x2="3833" y2="2763" stroke="black" stroke-width="7" stroke-linecap="round" fill="none" />
<line x1="3937" y1="2909" x2="3759" y2="2891" stroke="black" stroke-width="7" stroke-linecap="round" fill="none" />
<line x1="3759" y1="2891" x2="3833" y2="2763" stroke="black" stroke-width="7" stroke-linecap="round" fill="none" />
<line x1="3307" y1="3005" x2="3796" y2="3288" stroke="black" stroke-width="7" stroke-linecap="round" fill="none" />
<line x1="3937" y1="3369" x2="3833" y2="3224" stroke="black" stroke-width="7" stroke-linecap="round" fill="none" />
<line x1="3937" y1="3369" x2="3759" y2="3351" stroke="black" stroke-width="7" stroke-linecap="round" fill="none" />
<line x1="3759" y1="3351" x2="3833" y2="3224" stroke="black" stroke-width="7" stroke-linecap="round" fill="none" />
<line x1="4695" y1="4267" x2="4774" y2="4221" stroke="black" stroke-width="7" stroke-linecap="round" fill="none" />
<line x1="4615" y1="4313" x2="4695" y2="4267" stroke="black" stroke-width="7" stroke-linecap="round" fill="none" />
<line x1="4455" y1="4221" x2="4615" y2="4313" stroke="black" stroke-width="7" stroke-linecap="round" fill="none" />
<line x1="4455" y1="4221" x2="4296" y2="4129" stroke="black" stroke-width="7" stroke-linecap="round" fill="none" />
<line x1="4615" y1="1826" x2="4774" y2="1918" stroke="black" stroke-width="7" stroke-linecap="round" fill="none" />
<line x1="4615" y1="1826" x2="4455" y2="1734" stroke="black" stroke-width="7" stroke-linecap="round" fill="none" />
<line x1="4695" y1="1964" x2="4774" y2="1918" stroke="black" stroke-width="7" stroke-linecap="round" fill="none" />
<line x1="4615" y1="2010" x2="4695" y2="1964" stroke="black" stroke-width="7" stroke-linecap="round" fill="none" />
<line x1="4455" y1="1918" x2="4615" y2="2010" stroke="black" stroke-width="7" stroke-linecap="round" fill="none" />
<line x1="4455" y1="1918" x2="4296" y2="1826" stroke="black" stroke-width="7" stroke-linecap="round" fill="none" />
<line x1="4375" y1="1780" x2="4455" y2="1734" stroke="black" stroke-width="7" stroke-linecap="round" fill="none" />
<line x1="4296" y1="1826" x2="4375" y2="1780" stroke="black" stroke-width="7" stroke-linecap="round" fill="none" />
<line x1="4615" y1="4313" x2="4615" y2="2010" stroke="black" stroke-width="7" stroke-linecap="round" fill="none" />
<line x1="4774" y1="4221" x2="4774" y2="1918" stroke="black" stroke-width="7" stroke-linecap="round" fill="none" />
<line x1="4296" y1="4129" x2="4296" y2="1826" stroke="black" stroke-width="7" stroke-linecap="round" fill="none" />
<line x1="4535" y1="1872" x2="4597" y2="1908" stroke="black" stroke-width="2" stroke-linecap="round" fill="none" />
<line x1="4689" y1="1961" x2="4751" y2="1996" stroke="black" stroke-width="2" stroke-linecap="round" fill="none" />
<line x1="4843" y1="2050" x2="4904" y2="2085" stroke="black" stroke-width="2" stroke-linecap="round" fill="none" />
<line x1="4996" y1="2138" x2="5057" y2="2174" stroke="black" stroke-width="2" stroke-linecap="round" fill="none" />
<line x1="5149" y1="2227" x2="5211" y2="2262" stroke="black" stroke-width="2" stroke-linecap="round" fill="none" />
<line x1="5303" y1="2315" x2="5364" y2="2351" stroke="black" stroke-width="2" stroke-linecap="round" fill="none" />
<line x1="5456" y1="2404" x2="5518" y2="2439" stroke="black" stroke-width="2" stroke-linecap="round" fill="none" />
<line x1="5610" y1="2492" x2="5671" y2="2528" stroke="black" stroke-width="2" stroke-linecap="round" fill="none" />
<line x1="5763" y1="2581" x2="5825" y2="2617" stroke="black" stroke-width="2" stroke-linecap="round" fill="none" />
<line x1="6307" y1="2892" x2="6373" y2="2931" stroke="black" stroke-width="2" stroke-linecap="round" fill="none" />
<line x1="6464" y1="2985" x2="6529" y2="3023" stroke="black" stroke-width="2" stroke-linecap="round" fill="none" />
<line x1="4535" y1="1872" x2="4455" y2="1918" stroke="black" stroke-width="2" stroke-linecap="round" fill="none" />
<line x1="4363" y1="1971" x2="4302" y2="2006" stroke="black" stroke-width="2" stroke-linecap="round" fill="none" />
<line x1="4210" y1="2059" x2="4148" y2="2095" stroke="black" stroke-width="2" stroke-linecap="round" fill="none" />
<line x1="4056" y1="2148" x2="3995" y2="2183" stroke="black" stroke-width="2" stroke-linecap="round" fill="none" />
<line x1="3903" y1="2236" x2="3841" y2="2272" stroke="black" stroke-width="2" stroke-linecap="round" fill="none" />
<line x1="3749" y1="2325" x2="3688" y2="2360" stroke="black" stroke-width="2" stroke-linecap="round" fill="none" />
<line x1="3596" y1="2413" x2="3535" y2="2449" stroke="black" stroke-width="2" stroke-linecap="round" fill="none" />
<line x1="3442" y1="2502" x2="3381" y2="2537" stroke="black" stroke-width="2" stroke-linecap="round" fill="none" />
<line x1="3289" y1="2590" x2="3209" y2="2636" stroke="black" stroke-width="2" stroke-linecap="round" fill="none" />
<line x1="2731" y1="2913" x2="2682" y2="2942" stroke="black" stroke-width="2" stroke-linecap="round" fill="none" />
<line x1="2590" y1="2995" x2="2541" y2="3023" stroke="black" stroke-width="2" stroke-linecap="round" fill="none" />
<polygon points="2278,3170 2347,3076 2307,3076 2273,3123 2270,3128 2262,3139 2258,3145 2255,3140 2248,3129 2244,3122 2213,3076 2171,3076 2238,3172 2165,3276 2206,3276 2259,3197 2270,3213 2311,3276 2353,3276 " stroke="none" fill="black" />
<polygon points="6742,3326 6747,3322 6753,3318 6764,3306 6768,3298 6772,3292 6781,3269 6787,3252 6863,3049 6829,3049 6787,3165 6783,3177 6776,3199 6773,3211 6769,3199 6762,3176 6758,3165 6717,3049 6680,3049 6756,3249 6755,3252 6753,3256 6753,3258 6749,3268 6744,3280 6743,3283 6740,3286 6735,3292 6731,3293 6728,3295 6719,3297 6709,3297 6699,3296 6694,3294 6698,3326 6704,3328 6715,3330 6728,3330 " stroke="none" fill="black" />
<line x1="6671" y1="3105" x2="6566" y2="2960" stroke="black" stroke-width="2" stroke-linecap="round" fill="none" />
<line x1="6671" y1="3105" x2="6493" y2="3087" stroke="black" stroke-width="2" stroke-linecap="round" fill="none" />
<line x1="6493" y1="3087" x2="6566" y2="2960" stroke="black" stroke-width="2" stroke-linecap="round" fill="none" />
<line x1="2405" y1="3114" x2="2582" y2="3085" stroke="black" stroke-width="2" stroke-linecap="round" fill="none" />
<line x1="2405" y1="3114" x2="2500" y2="2962" stroke="black" stroke-width="2" stroke-linecap="round" fill="none" />
<line x1="2500" y1="2962" x2="2582" y2="3085" stroke="black" stroke-width="2" stroke-linecap="round" fill="none" />
<line x1="4120" y1="1632" x2="3698" y2="1389" stroke="black" stroke-width="7" stroke-linecap="round" fill="none" />
<line x1="5405" y1="1369" x2="4881" y2="1672" stroke="black" stroke-width="7" stroke-linecap="round" fill="none" />
<line x1="4739" y1="1754" x2="4916" y2="1725" stroke="black" stroke-width="7" stroke-linecap="round" fill="none" />
<line x1="4739" y1="1754" x2="4834" y2="1602" stroke="black" stroke-width="7" stroke-linecap="round" fill="none" />
<line x1="4834" y1="1602" x2="4916" y2="1725" stroke="black" stroke-width="7" stroke-linecap="round" fill="none" />
<polygon points="2766,4980 2668,4810 2823,4947 2847,4933 2809,4733 2905,4899 2931,4885 2816,4685 2780,4706 2812,4872 2815,4885 2819,4904 2820,4910 2816,4906 2803,4894 2794,4886 2665,4772 2625,4795 2740,4995 " stroke="none" fill="black" />
<path d="M3249,4857 L3252,4848 V4844 V4839 L3249,4829 L3246,4824 L3234,4804 L3215,4816 L3226,4835 L3236,4830 L3238,4834 L3241,4842 V4845 V4848 L3239,4853 L3237,4856 L3246,4861 Z M3025,4951 L3028,4896 L3039,4901 L3078,4921 L3099,4909 L3030,4877 L3038,4809 L3017,4821 L3014,4855 V4858 L3013,4866 V4870 L3010,4869 L3003,4865 L2999,4863 L2970,4848 L2949,4861 L3011,4889 L3004,4963 Z M3127,4870 L3120,4868 L3113,4865 L3101,4853 L3095,4843 L3090,4833 L3085,4816 L3086,4810 L3087,4803 L3094,4793 L3100,4789 L3106,4786 L3118,4785 L3125,4788 L3132,4790 L3145,4803 L3151,4813 L3156,4823 L3160,4839 L3159,4846 L3158,4853 L3151,4863 L3145,4866 L3140,4869 Z M3146,4885 L3152,4881 L3161,4876 L3171,4860 V4850 L3179,4863 L3195,4853 L3114,4714 L3097,4724 L3126,4774 L3122,4772 L3113,4770 H3108 L3104,4771 L3095,4773 L3090,4776 L3084,4780 L3074,4789 L3071,4796 L3068,4802 L3066,4816 L3067,4823 L3068,4831 L3073,4846 L3078,4854 L3082,4861 L3093,4873 L3099,4878 L3105,4882 L3119,4887 H3126 L3133,4888 Z M3305,4774 H3290 L3282,4770 L3277,4767 L3267,4755 L3262,4746 L3256,4737 L3252,4721 L3254,4713 L3255,4706 L3262,4696 L3267,4692 L3273,4689 L3285,4688 L3292,4691 L3299,4693 L3311,4706 L3317,4715 L3322,4725 L3326,4742 L3325,4749 L3324,4757 L3317,4767 L3311,4770 Z M3292,4797 L3284,4785 L3294,4789 H3312 L3321,4784 L3330,4778 L3341,4762 L3344,4752 L3346,4741 L3341,4717 L3333,4704 L3330,4698 L3323,4689 L3318,4685 L3314,4681 L3305,4675 L3300,4674 L3296,4672 L3286,4670 L3281,4671 H3275 L3265,4675 L3261,4677 L3252,4682 L3242,4697 L3241,4707 L3212,4657 L3195,4667 L3276,4807 Z " stroke="none" fill="black" />
<line x1="2729" y1="5218" x2="2907" y2="5200" stroke="black" stroke-width="7" stroke-linecap="round" fill="none" />
<line x1="2833" y1="5072" x2="2907" y2="5200" stroke="black" stroke-width="7" stroke-linecap="round" fill="none" />
<line x1="2870" y1="5136" x2="3048" y2="5119" stroke="black" stroke-width="7" stroke-linecap="round" fill="none" />
<line x1="2975" y1="4991" x2="3048" y2="5119" stroke="black" stroke-width="7" stroke-linecap="round" fill="none" />
<line x1="2833" y1="5072" x2="2729" y2="5218" stroke="black" stroke-width="7" stroke-linecap="round" fill="none" />
<line x1="2975" y1="4991" x2="2870" y2="5136" stroke="black" stroke-width="7" stroke-linecap="round" fill="none" />
<polygon points="2665,2734 2567,2564 2723,2701 2747,2687 2708,2486 2805,2653 2830,2639 2715,2439 2679,2460 2712,2626 2714,2639 2718,2658 2720,2664 2715,2660 2702,2648 2693,2640 2564,2526 2525,2549 2640,2749 " stroke="none" fill="black" />
<path d="M3148,2611 L3151,2602 V2597 V2593 L3148,2583 L3145,2578 L3134,2558 L3114,2570 L3125,2589 L3135,2584 L3137,2588 L3140,2595 V2599 V2602 L3138,2607 L3136,2610 L3145,2615 Z M2924,2705 L2928,2650 L2938,2655 L2977,2675 L2998,2663 L2930,2631 L2937,2563 L2917,2575 L2913,2609 V2612 L2912,2620 V2624 L2909,2623 L2903,2619 L2898,2617 L2869,2602 L2848,2615 L2910,2643 L2903,2717 Z M3027,2624 L3020,2622 L3013,2619 L3000,2607 L2995,2597 L2989,2587 L2984,2570 L2985,2563 L2987,2557 L2993,2546 L2999,2543 L3005,2540 L3018,2539 L3024,2541 L3031,2544 L3044,2557 L3050,2567 L3055,2577 L3060,2593 L3058,2600 L3057,2607 L3050,2617 L3045,2620 L3039,2623 Z M3198,2549 L3203,2546 L3206,2545 L3212,2540 L3215,2537 L3204,2524 L3202,2525 L3198,2528 L3197,2529 L3195,2530 L3191,2531 H3189 L3186,2530 L3185,2529 L3184,2528 L3181,2524 L3179,2520 L3145,2461 L3162,2451 L3154,2438 L3137,2448 L3116,2412 L3105,2432 L3120,2458 L3107,2465 L3115,2478 L3128,2471 L3161,2529 L3166,2537 L3172,2546 L3175,2548 L3177,2550 L3183,2552 H3190 Z M3045,2639 L3051,2635 L3060,2630 L3070,2614 L3071,2604 L3078,2617 L3094,2607 L3013,2468 L2996,2478 L3025,2528 L3021,2526 L3012,2524 H3003 L2994,2527 L2989,2530 L2983,2533 L2974,2543 L2971,2549 L2967,2556 L2965,2569 L2966,2577 L2967,2585 L2973,2600 L2977,2608 L2982,2615 L2992,2627 L2999,2632 L3005,2636 L3018,2641 H3025 L3032,2642 Z " stroke="none" fill="black" />
<line x1="3012" y1="2751" x2="3209" y2="2636" stroke="black" stroke-width="7" stroke-linecap="round" fill="none" />
<line x1="2729" y1="2914" x2="2907" y2="2896" stroke="black" stroke-width="7" stroke-linecap="round" fill="none" />
<line x1="2833" y1="2768" x2="2907" y2="2896" stroke="black" stroke-width="7" stroke-linecap="round" fill="none" />
<line x1="2870" y1="2832" x2="3048" y2="2814" stroke="black" stroke-width="7" stroke-linecap="round" fill="none" />
<line x1="2975" y1="2687" x2="3048" y2="2814" stroke="black" stroke-width="7" stroke-linecap="round" fill="none" />
<line x1="2833" y1="2768" x2="2729" y2="2914" stroke="black" stroke-width="7" stroke-linecap="round" fill="none" />
<line x1="2975" y1="2687" x2="2870" y2="2832" stroke="black" stroke-width="7" stroke-linecap="round" fill="none" />
<line x1="3011" y1="5055" x2="3209" y2="4940" stroke="black" stroke-width="7" stroke-linecap="round" fill="none" />
<polygon points="6314,4612 6278,4592 6151,4704 6141,4712 6126,4725 6122,4729 6123,4724 6127,4706 6129,4694 6163,4526 6123,4503 6008,4703 6034,4718 6131,4547 6092,4751 6116,4764 6269,4630 6174,4797 6199,4812 " stroke="none" fill="black" />
<path d="M6513,5114 L6523,5111 L6541,5094 L6549,5081 L6552,5076 L6556,5065 L6558,5059 L6559,5053 V5043 L6558,5038 V5033 L6554,5023 L6551,5019 L6548,5015 L6540,5008 L6535,5005 L6527,5000 L6509,4999 L6500,5003 L6528,4953 L6511,4943 L6431,5083 L6447,5092 L6454,5080 L6455,5090 L6465,5106 L6474,5111 L6483,5116 L6502,5118 Z M6383,5083 L6387,5081 L6391,5079 L6398,5071 L6401,5066 L6412,5046 L6392,5035 L6381,5055 L6391,5060 L6388,5065 L6383,5070 L6381,5072 L6378,5074 L6372,5075 H6369 V5085 H6374 Z M6499,5100 L6486,5099 L6480,5096 L6474,5092 L6466,5079 V5070 V5065 L6471,5050 L6476,5041 L6481,5032 L6494,5020 L6501,5017 L6507,5015 H6520 L6526,5019 L6531,5022 L6538,5032 L6539,5039 L6541,5046 L6536,5063 L6530,5073 L6525,5082 L6512,5095 L6506,5097 Z M6430,4897 L6413,4887 L6384,4937 V4933 L6381,4925 L6378,4921 L6376,4917 L6369,4910 L6364,4907 L6358,4904 L6345,4901 H6331 L6318,4907 L6312,4911 L6306,4916 L6295,4928 L6291,4936 L6286,4944 L6281,4959 V4967 L6280,4974 L6283,4988 L6286,4994 L6289,5001 L6298,5010 L6304,5014 L6314,5019 L6332,5020 L6341,5015 L6334,5028 L6350,5037 Z M6332,5005 L6320,5004 L6314,5001 L6308,4997 L6301,4987 L6300,4980 L6299,4973 L6303,4956 L6308,4946 L6314,4936 L6326,4923 L6333,4921 L6340,4918 L6352,4919 L6357,4923 L6363,4926 L6370,4936 L6372,4944 L6373,4951 L6368,4968 L6362,4979 L6357,4988 L6345,5000 L6338,5002 Z M6173,4985 H6178 L6186,4982 L6191,4979 L6195,4977 L6206,4968 L6214,4961 L6311,4880 L6294,4871 L6239,4917 L6234,4922 L6223,4931 L6219,4936 L6220,4929 L6223,4915 L6225,4909 L6237,4838 L6219,4827 L6199,4951 L6198,4952 L6196,4954 H6195 L6190,4958 L6184,4963 L6182,4964 L6180,4965 L6176,4966 H6171 L6166,4964 L6164,4963 L6161,4962 L6157,4958 L6155,4956 L6147,4973 L6150,4976 L6155,4980 L6157,4981 L6161,4984 L6169,4986 Z " stroke="none" fill="black" />
<line x1="6307" y1="5195" x2="6202" y2="5050" stroke="black" stroke-width="7" stroke-linecap="round" fill="none" />
<line x1="6129" y1="5178" x2="6202" y2="5050" stroke="black" stroke-width="7" stroke-linecap="round" fill="none" />
<line x1="6165" y1="5114" x2="6060" y2="4969" stroke="black" stroke-width="7" stroke-linecap="round" fill="none" />
<line x1="5987" y1="5097" x2="6060" y2="4969" stroke="black" stroke-width="7" stroke-linecap="round" fill="none" />
<line x1="6129" y1="5178" x2="6307" y2="5195" stroke="black" stroke-width="7" stroke-linecap="round" fill="none" />
<line x1="5987" y1="5097" x2="6165" y2="5114" stroke="black" stroke-width="7" stroke-linecap="round" fill="none" />
<line x1="6023" y1="5034" x2="5825" y2="4920" stroke="black" stroke-width="7" stroke-linecap="round" fill="none" />
<polygon points="6314,2309 6278,2289 6151,2401 6141,2409 6126,2422 6122,2426 6123,2421 6127,2403 6129,2391 6163,2223 6123,2200 6008,2400 6034,2415 6131,2244 6092,2448 6116,2461 6269,2327 6174,2494 6199,2509 " stroke="none" fill="black" />
<path d="M6383,2780 L6387,2778 L6391,2776 L6398,2768 L6401,2763 L6412,2743 L6392,2732 L6381,2752 L6391,2757 L6388,2762 L6383,2768 L6381,2769 L6378,2771 L6372,2772 H6369 V2782 H6374 Z M6430,2594 L6413,2584 L6384,2634 V2630 L6381,2622 L6378,2618 L6376,2614 L6369,2607 L6364,2604 L6358,2601 L6345,2598 H6331 L6318,2604 L6312,2608 L6306,2613 L6295,2625 L6291,2633 L6286,2641 L6281,2656 V2664 L6280,2671 L6283,2685 L6286,2691 L6289,2698 L6298,2707 L6304,2711 L6314,2716 L6332,2717 L6341,2712 L6334,2725 L6350,2734 Z M6477,2786 L6475,2785 L6471,2784 L6469,2783 L6468,2782 L6465,2779 L6464,2778 V2777 L6463,2774 V2773 V2772 L6466,2767 L6468,2763 L6502,2704 L6519,2714 L6527,2700 L6509,2691 L6530,2655 L6507,2656 L6492,2681 L6480,2674 L6472,2687 L6485,2694 L6451,2752 L6447,2760 L6442,2771 V2774 L6441,2777 L6443,2783 L6445,2786 L6446,2789 L6453,2794 L6457,2797 L6460,2799 L6467,2802 L6471,2803 Z M6332,2702 L6320,2701 L6314,2698 L6308,2694 L6301,2684 L6300,2677 L6299,2670 L6303,2653 L6308,2643 L6314,2633 L6326,2620 L6333,2618 L6340,2615 L6352,2616 L6357,2620 L6363,2623 L6370,2633 L6372,2641 L6373,2648 L6368,2665 L6362,2676 L6357,2685 L6345,2697 L6338,2699 Z M6173,2682 H6178 L6186,2679 L6191,2676 L6195,2674 L6206,2665 L6214,2658 L6311,2577 L6294,2568 L6239,2614 L6234,2619 L6223,2628 L6219,2633 L6220,2626 L6223,2612 L6225,2606 L6237,2535 L6219,2524 L6199,2648 L6198,2649 L6196,2651 H6195 L6190,2655 L6184,2660 L6182,2661 L6180,2662 L6176,2663 H6171 L6166,2661 L6164,2660 L6161,2659 L6157,2655 L6155,2653 L6147,2670 L6150,2673 L6155,2677 L6157,2678 L6161,2681 L6169,2683 Z " stroke="none" fill="black" />
<line x1="6307" y1="2892" x2="6202" y2="2747" stroke="black" stroke-width="7" stroke-linecap="round" fill="none" />
<line x1="6129" y1="2875" x2="6202" y2="2747" stroke="black" stroke-width="7" stroke-linecap="round" fill="none" />
<line x1="6165" y1="2811" x2="6060" y2="2666" stroke="black" stroke-width="7" stroke-linecap="round" fill="none" />
<line x1="5987" y1="2794" x2="6060" y2="2666" stroke="black" stroke-width="7" stroke-linecap="round" fill="none" />
<line x1="6129" y1="2875" x2="6307" y2="2892" stroke="black" stroke-width="7" stroke-linecap="round" fill="none" />
<line x1="5987" y1="2794" x2="6165" y2="2811" stroke="black" stroke-width="7" stroke-linecap="round" fill="none" />
<line x1="6023" y1="2731" x2="5825" y2="2617" stroke="black" stroke-width="7" stroke-linecap="round" fill="none" />
<path d="M5634,3748 L5625,3744 L5615,3741 L5598,3724 L5590,3710 L5582,3696 L5575,3671 L5577,3660 L5579,3649 L5589,3634 L5596,3630 L5604,3625 L5622,3624 L5632,3628 L5641,3631 L5659,3649 L5667,3663 L5675,3677 L5682,3702 L5680,3712 L5678,3722 L5668,3737 L5660,3742 L5652,3747 Z M5665,3835 L5625,3765 L5630,3767 L5642,3769 H5648 L5655,3768 L5667,3765 L5673,3761 L5682,3756 L5695,3742 L5700,3733 L5704,3724 L5708,3704 L5707,3693 L5706,3682 L5698,3659 L5692,3648 L5686,3638 L5671,3621 L5663,3614 L5654,3608 L5636,3600 H5626 L5616,3599 L5597,3604 L5588,3609 L5581,3613 L5570,3623 L5567,3629 L5563,3634 L5559,3648 V3655 L5548,3637 L5525,3649 L5641,3849 Z " stroke="none" fill="black" />
<path d="M6042,3699 L6045,3690 V3686 V3682 L6042,3672 L6039,3666 L6028,3647 L6008,3658 L6020,3678 L6029,3672 L6032,3677 L6034,3684 V3687 V3690 L6032,3696 L6030,3699 L6039,3703 Z M5819,3794 L5822,3739 L5833,3744 L5871,3763 L5892,3751 L5824,3719 L5831,3652 L5811,3663 L5808,3697 L5807,3701 V3708 L5806,3713 L5804,3711 L5797,3708 L5793,3706 L5764,3691 L5742,3703 L5804,3732 L5798,3806 Z M5921,3713 L5914,3710 L5907,3708 L5895,3696 L5889,3686 L5883,3676 L5879,3659 L5880,3652 L5881,3645 L5888,3635 L5893,3632 L5899,3628 L5912,3627 L5919,3630 L5926,3633 L5938,3645 L5944,3656 L5950,3665 L5954,3682 L5953,3688 L5951,3695 L5945,3705 L5939,3709 L5933,3712 Z M5939,3727 L5945,3724 L5955,3718 L5965,3703 V3692 L5972,3705 L5988,3696 L5908,3556 L5891,3566 L5920,3616 L5916,3614 L5907,3613 H5897 L5888,3616 L5884,3618 L5877,3622 L5868,3632 L5865,3638 L5862,3644 L5860,3658 L5861,3666 L5862,3673 L5867,3688 L5871,3696 L5876,3704 L5887,3716 L5893,3720 L5899,3725 L5912,3729 L5919,3730 H5926 Z M6098,3617 L6083,3616 L6076,3612 L6071,3610 L6061,3598 L6055,3589 L6050,3579 L6046,3563 L6047,3556 L6049,3548 L6055,3538 L6061,3535 L6067,3532 L6079,3531 L6086,3533 L6092,3536 L6105,3548 L6110,3558 L6116,3568 L6120,3584 L6119,3592 L6118,3599 L6111,3609 L6105,3613 Z M6085,3640 L6078,3627 L6087,3632 L6106,3631 L6115,3626 L6124,3621 L6135,3605 L6137,3594 L6140,3583 L6134,3559 L6127,3546 L6124,3541 L6116,3531 L6112,3528 L6108,3524 L6099,3518 L6094,3516 L6089,3514 L6080,3513 H6074 L6069,3514 L6059,3517 L6054,3520 L6046,3525 L6036,3539 L6035,3549 L6006,3500 L5989,3509 L6069,3649 Z " stroke="none" fill="black" />
<path d="M3129,3602 L3111,3601 L3103,3597 L3094,3592 L3085,3577 L3083,3568 L3081,3558 L3087,3534 L3095,3520 L3103,3506 L3121,3488 L3132,3484 L3142,3480 L3160,3481 L3168,3485 L3176,3490 L3185,3504 L3187,3515 L3189,3525 L3183,3549 L3175,3563 L3166,3577 L3148,3595 L3138,3599 Z M3065,3578 L3066,3583 L3070,3595 L3074,3600 L3077,3605 L3087,3614 L3093,3618 L3101,3623 L3120,3627 H3130 L3140,3626 L3160,3619 L3169,3613 L3178,3606 L3193,3588 L3200,3577 L3206,3567 L3213,3546 L3214,3535 L3216,3524 L3213,3504 L3208,3496 L3204,3487 L3190,3473 L3181,3467 L3174,3463 L3160,3459 H3147 L3133,3462 L3126,3465 L3137,3447 L3115,3434 L3000,3634 L3025,3648 Z " stroke="none" fill="black" />
<path d="M3461,3947 L3472,3944 L3490,3927 L3497,3914 L3500,3909 L3505,3897 L3506,3892 L3507,3886 L3508,3875 L3507,3870 L3506,3866 L3502,3856 L3499,3852 L3496,3848 L3488,3841 L3484,3838 L3475,3833 L3458,3832 L3448,3836 L3477,3786 L3460,3776 L3380,3916 L3395,3925 L3403,3912 L3404,3923 L3413,3938 L3422,3944 L3431,3949 L3451,3950 Z M3332,3916 L3336,3914 L3339,3912 L3346,3904 L3349,3899 L3361,3879 L3341,3868 L3330,3888 L3340,3893 L3337,3897 L3332,3903 L3329,3905 L3326,3906 L3320,3908 L3317,3907 L3318,3917 L3323,3918 Z M3378,3730 L3361,3720 L3333,3770 L3332,3766 L3329,3757 L3327,3753 L3324,3749 L3317,3743 L3313,3740 L3306,3737 L3293,3733 L3286,3734 H3279 L3266,3739 L3260,3744 L3254,3749 L3244,3761 L3239,3769 L3235,3777 L3230,3792 L3229,3799 V3807 L3231,3821 L3234,3827 L3237,3833 L3247,3843 L3253,3847 L3262,3852 H3281 L3290,3848 L3282,3860 L3298,3870 Z M3447,3933 L3435,3932 L3429,3929 L3422,3925 L3415,3912 V3903 L3414,3897 L3419,3883 L3425,3874 L3430,3864 L3442,3853 L3449,3850 L3456,3847 L3469,3848 L3474,3851 L3480,3855 L3487,3865 L3488,3872 L3489,3879 L3485,3896 L3479,3906 L3473,3915 L3461,3927 L3454,3930 Z M3280,3837 H3268 L3262,3833 L3257,3830 L3250,3820 L3249,3813 L3247,3805 L3251,3789 L3257,3779 L3263,3769 L3275,3756 L3282,3754 L3288,3751 L3300,3752 L3306,3755 L3312,3759 L3319,3769 L3320,3776 L3321,3784 L3317,3801 L3311,3811 L3305,3821 L3293,3833 L3287,3835 Z M3135,3815 L3140,3812 L3143,3810 L3155,3801 L3162,3794 L3260,3713 L3243,3703 L3187,3750 L3182,3754 L3172,3764 L3167,3769 L3169,3762 L3172,3748 L3173,3741 L3186,3671 L3167,3660 L3147,3784 L3146,3785 L3144,3786 V3787 L3139,3791 L3133,3796 L3131,3797 L3129,3798 L3125,3799 H3120 L3115,3797 L3112,3795 L3110,3794 L3105,3791 L3103,3788 L3096,3806 L3098,3808 L3103,3813 L3106,3814 L3110,3816 L3118,3818 H3126 Z " stroke="none" fill="black" />
<path d="M3096,1653 L3078,1652 L3070,1648 L3062,1643 L3052,1629 L3050,1619 L3048,1609 L3054,1585 L3062,1571 L3070,1557 L3089,1539 L3099,1535 L3109,1531 L3127,1532 L3135,1536 L3143,1541 L3153,1556 L3154,1566 L3156,1576 L3150,1600 L3142,1614 L3134,1628 L3116,1646 L3106,1650 Z M3032,1629 L3033,1635 L3038,1646 L3041,1651 L3044,1656 L3054,1665 L3060,1669 L3068,1674 L3087,1678 H3097 L3108,1677 L3127,1670 L3136,1664 L3145,1657 L3161,1639 L3167,1628 L3173,1618 L3180,1597 L3182,1586 L3183,1575 L3180,1556 L3176,1547 L3171,1538 L3158,1524 L3148,1518 L3141,1514 L3128,1510 H3114 L3101,1513 L3094,1517 L3104,1498 L3082,1485 L2968,1685 L2992,1699 Z " stroke="none" fill="black" />
<path d="M3299,1967 L3303,1965 L3307,1963 L3314,1955 L3317,1950 L3328,1930 L3308,1919 L3297,1939 L3307,1944 L3304,1949 L3299,1954 L3296,1956 L3294,1958 L3288,1959 L3284,1958 L3285,1968 L3290,1969 Z M3346,1781 L3329,1771 L3300,1821 L3299,1817 L3296,1808 L3294,1804 L3291,1800 L3284,1794 L3280,1791 L3274,1788 L3260,1785 H3247 L3234,1790 L3227,1795 L3221,1800 L3211,1812 L3207,1820 L3202,1828 L3197,1843 L3196,1851 V1858 L3198,1872 L3202,1878 L3205,1884 L3214,1894 L3220,1898 L3229,1903 L3248,1904 L3257,1899 L3250,1912 L3266,1921 Z M3393,1973 L3391,1972 L3387,1970 H3385 L3383,1969 L3381,1966 L3380,1965 V1964 L3379,1961 V1960 V1959 L3382,1954 L3384,1950 L3418,1891 L3435,1901 L3442,1887 L3425,1877 L3445,1842 L3422,1843 L3408,1868 L3395,1860 L3388,1874 L3400,1881 L3367,1939 L3363,1947 L3358,1958 V1961 L3357,1964 L3359,1970 L3360,1973 L3362,1976 L3369,1981 L3373,1984 L3376,1986 L3383,1989 L3387,1990 Z M3248,1889 L3235,1888 L3230,1884 L3224,1881 L3217,1871 L3216,1864 L3215,1857 L3219,1840 L3224,1830 L3230,1820 L3242,1807 L3249,1805 L3255,1802 L3268,1803 L3273,1806 L3279,1810 L3286,1820 L3288,1827 L3289,1835 L3284,1852 L3278,1863 L3273,1872 L3261,1884 L3254,1886 Z M3102,1866 L3107,1863 L3110,1861 L3122,1852 L3130,1845 L3227,1764 L3210,1754 L3155,1801 L3149,1806 L3139,1815 L3134,1820 L3136,1813 L3139,1799 L3140,1792 L3153,1722 L3134,1711 L3115,1835 L3113,1836 L3112,1837 L3111,1838 L3106,1842 L3100,1847 L3098,1848 L3096,1849 L3092,1850 H3087 L3082,1848 L3079,1847 L3077,1845 L3073,1842 L3070,1839 L3063,1857 L3066,1859 L3070,1864 L3073,1865 L3077,1867 L3085,1869 H3093 Z " stroke="none" fill="black" />
<path d="M5708,1850 L5699,1847 L5689,1843 L5672,1826 L5664,1812 L5656,1798 L5649,1774 L5651,1763 L5653,1752 L5663,1737 L5670,1732 L5678,1728 L5696,1727 L5705,1730 L5715,1734 L5733,1751 L5741,1765 L5749,1779 L5756,1804 L5754,1815 L5752,1825 L5742,1840 L5734,1844 L5726,1849 Z M5739,1938 L5699,1867 L5704,1869 L5716,1871 H5728 L5741,1867 L5747,1864 L5755,1859 L5769,1845 L5773,1836 L5778,1827 L5782,1806 L5781,1795 L5780,1784 L5772,1762 L5766,1751 L5760,1740 L5745,1723 L5737,1717 L5728,1710 L5710,1703 L5700,1702 H5690 L5671,1706 L5662,1712 L5655,1716 L5644,1725 L5641,1731 L5637,1737 L5633,1750 L5632,1758 L5622,1739 L5599,1752 L5715,1952 Z " stroke="none" fill="black" />
<path d="M6116,1802 L6119,1793 V1789 V1784 L6116,1774 L6113,1769 L6102,1749 L6082,1761 L6094,1780 L6103,1775 L6106,1779 L6108,1787 V1790 V1793 L6106,1798 L6104,1801 L6113,1806 Z M5892,1896 L5896,1841 L5906,1846 L5945,1866 L5966,1854 L5898,1822 L5905,1754 L5885,1766 L5882,1800 L5881,1803 V1811 L5880,1815 L5878,1814 L5871,1810 L5867,1808 L5837,1793 L5816,1806 L5878,1834 L5872,1908 Z M5995,1815 L5988,1813 L5981,1810 L5969,1798 L5963,1788 L5957,1778 L5952,1761 L5954,1755 L5955,1748 L5962,1737 L5967,1734 L5973,1731 L5986,1730 L5993,1732 L5999,1735 L6012,1748 L6018,1758 L6024,1768 L6028,1784 L6027,1791 L6025,1798 L6018,1808 L6013,1811 L6007,1814 Z M6166,1740 L6171,1737 L6174,1736 L6180,1731 L6183,1728 L6172,1715 L6170,1716 L6166,1719 L6165,1720 L6163,1721 L6160,1722 H6157 L6154,1721 L6153,1720 L6152,1719 L6149,1715 L6147,1711 L6113,1652 L6130,1642 L6122,1629 L6105,1639 L6085,1603 L6074,1624 L6088,1649 L6075,1656 L6083,1669 L6096,1662 L6129,1720 L6134,1728 L6141,1737 L6143,1739 L6146,1741 L6151,1743 H6158 Z M6013,1830 L6019,1826 L6029,1821 L6038,1805 L6039,1795 L6046,1808 L6062,1798 L5982,1659 L5964,1669 L5993,1719 L5989,1717 L5981,1715 H5971 L5962,1718 L5957,1721 L5951,1725 L5942,1734 L5939,1741 L5936,1747 L5933,1761 L5934,1768 L5936,1776 L5941,1791 L5945,1799 L5950,1806 L5960,1818 L5967,1823 L5973,1827 L5986,1832 H5993 L6000,1833 Z " stroke="none" fill="black" />
<line x1="4261" y1="1714" x2="4157" y2="1568" stroke="black" stroke-width="7" stroke-linecap="round" fill="none" />
<line x1="4261" y1="1714" x2="4083" y2="1696" stroke="black" stroke-width="7" stroke-linecap="round" fill="none" />
<line x1="4083" y1="1696" x2="4157" y2="1568" stroke="black" stroke-width="7" stroke-linecap="round" fill="none" />
<polygon points="5175,1306 5121,1212 5224,1152 5279,1246 5305,1231 5190,1032 5164,1047 5211,1129 5107,1189 5060,1107 5033,1122 5149,1321 " stroke="none" fill="black" />
<path d="M5625,1202 L5628,1194 V1189 V1185 L5624,1175 L5621,1170 L5610,1150 L5591,1161 L5602,1181 L5612,1175 L5614,1180 L5616,1187 V1190 V1193 L5614,1199 L5612,1202 L5621,1206 Z M5401,1297 L5404,1242 L5415,1247 L5454,1266 L5475,1254 L5406,1222 L5414,1155 L5393,1167 L5390,1200 L5389,1204 V1211 V1216 L5386,1214 L5379,1211 L5375,1209 L5346,1194 L5324,1206 L5387,1235 L5380,1309 Z M5503,1216 L5496,1213 L5489,1211 L5477,1199 L5471,1189 L5465,1179 L5461,1162 L5462,1155 L5463,1148 L5470,1138 L5476,1135 L5481,1131 H5494 L5501,1133 L5508,1136 L5520,1149 L5526,1159 L5532,1168 L5536,1185 L5535,1192 L5534,1198 L5527,1208 L5521,1212 L5515,1215 Z M5675,1141 L5679,1138 L5682,1136 L5688,1132 L5691,1129 L5680,1115 L5678,1117 L5674,1119 L5673,1120 L5671,1121 L5668,1122 H5665 L5663,1121 H5662 L5660,1120 L5657,1115 L5655,1112 L5621,1053 L5638,1043 L5631,1029 L5613,1039 L5593,1004 L5582,1024 L5596,1049 L5584,1056 L5591,1070 L5604,1063 L5638,1121 L5642,1128 L5649,1138 L5651,1140 L5654,1142 L5660,1143 H5667 Z M5522,1230 L5528,1227 L5537,1221 L5547,1206 V1195 L5555,1208 L5570,1199 L5490,1059 L5473,1069 L5502,1119 L5498,1117 L5489,1116 H5480 L5470,1119 L5466,1122 L5460,1125 L5450,1135 L5447,1141 L5444,1147 L5442,1161 L5443,1169 L5444,1176 L5449,1192 L5454,1199 L5458,1207 L5469,1219 L5475,1223 L5481,1228 L5494,1233 H5508 Z " stroke="none" fill="black" />
<polygon points="3790,936 3764,921 3717,1003 3613,943 3660,861 3634,846 3519,1046 3546,1061 3600,967 3704,1026 3650,1121 3676,1136 " stroke="none" fill="black" />
<path d="M3862,1408 L3865,1406 L3869,1403 L3876,1396 L3879,1390 L3890,1371 L3871,1360 L3860,1379 L3869,1385 L3867,1389 L3861,1395 L3859,1396 L3856,1398 L3850,1399 H3847 V1409 H3853 Z M3908,1221 L3891,1211 L3862,1262 V1257 L3859,1249 L3856,1245 L3854,1241 L3847,1234 L3842,1232 L3836,1228 L3823,1225 H3816 L3809,1226 L3796,1231 L3790,1236 L3784,1240 L3773,1253 L3769,1260 L3765,1268 L3760,1283 L3759,1291 L3758,1299 L3761,1312 L3764,1319 L3767,1325 L3776,1335 L3783,1338 L3792,1343 L3810,1344 L3819,1339 L3812,1352 L3828,1361 Z M3956,1414 L3953,1413 L3949,1411 L3948,1410 L3946,1409 L3943,1407 V1406 L3942,1404 L3941,1402 L3942,1400 V1399 L3944,1394 L3946,1391 L3980,1331 L3997,1341 L4005,1328 L3988,1318 L4008,1282 L3985,1283 L3971,1308 L3958,1301 L3950,1314 L3963,1321 L3930,1380 L3925,1388 L3920,1398 V1401 V1404 L3921,1410 L3923,1413 L3925,1416 L3931,1422 L3936,1424 L3939,1426 L3945,1429 L3950,1430 Z M3810,1329 L3798,1328 L3792,1325 L3787,1322 L3780,1311 L3778,1304 L3777,1297 L3781,1280 L3787,1270 L3793,1260 L3805,1248 L3811,1245 L3818,1243 L3830,1244 L3836,1247 L3842,1250 L3849,1261 L3850,1268 L3851,1275 L3847,1293 L3841,1303 L3835,1312 L3823,1324 L3817,1327 Z M3656,1309 L3665,1306 L3669,1303 L3673,1301 L3684,1292 L3692,1286 L3790,1205 L3773,1195 L3717,1242 L3712,1246 L3702,1256 L3697,1261 L3699,1254 L3702,1240 L3703,1233 L3715,1162 L3697,1152 L3677,1275 L3676,1276 L3674,1278 H3673 L3669,1283 L3662,1287 L3661,1288 L3659,1289 L3654,1290 H3650 L3645,1289 L3642,1287 L3640,1286 L3635,1282 L3633,1280 L3626,1297 L3628,1300 L3633,1304 L3635,1306 L3640,1308 L3648,1310 H3652 Z " stroke="none" fill="black" />
<line x1="4535" y1="1537" x2="4535" y2="1013" stroke="black" stroke-width="7" stroke-linecap="round" fill="none" />
<line x1="4535" y1="1701" x2="4609" y2="1537" stroke="black" stroke-width="7" stroke-linecap="round" fill="none" />
<line x1="4461" y1="1537" x2="4609" y2="1537" stroke="black" stroke-width="7" stroke-linecap="round" fill="none" />
<line x1="4461" y1="1537" x2="4535" y2="1701" stroke="black" stroke-width="7" stroke-linecap="round" fill="none" />
<polygon points="4273,702 4381,702 4381,675 4273,675 4273,604 4398,604 4398,577 4243,577 4243,807 4273,807 " stroke="none" fill="black" />
<path d="M4516,895 H4444 L4437,896 L4450,882 L4513,808 V795 H4417 V811 H4481 L4487,810 L4413,896 V912 H4516 Z M4770,912 L4767,894 L4764,895 H4756 L4753,894 L4752,893 H4751 L4749,891 L4748,890 V888 L4747,883 V879 V810 H4767 V795 H4747 V754 L4728,766 V795 H4713 V810 H4728 V878 V887 L4729,898 L4730,901 L4731,904 L4735,908 L4738,910 L4741,912 L4750,913 H4766 Z M4675,942 L4682,936 L4685,932 L4687,928 L4689,918 V912 V889 H4667 V912 H4678 V917 L4676,925 L4674,927 L4673,930 L4668,934 L4665,935 L4671,944 Z M4588,898 H4575 L4563,893 L4559,887 L4554,882 L4549,865 V854 V842 L4554,825 L4558,820 L4563,814 L4574,809 H4587 L4598,814 L4603,820 L4608,826 L4612,843 V855 V866 L4608,882 L4603,888 L4599,893 Z M4606,906 L4612,897 V912 H4630 V751 H4611 V808 L4608,805 L4601,799 L4597,797 L4593,795 L4584,792 H4571 L4558,796 L4552,800 L4546,804 L4538,815 L4535,822 L4532,829 L4529,845 V854 V863 L4532,878 L4535,885 L4539,892 L4548,903 L4554,907 L4559,911 L4572,915 H4590 Z " stroke="none" fill="black" />
<line x1="0" y1="6047" x2="9070" y2="6047" stroke="black" stroke-width="1" stroke-linecap="round" fill="none" />
<line x1="0" y1="6047" x2="0" y2="61" stroke="black" stroke-width="1" stroke-linecap="round" fill="none" />
<line x1="0" y1="6047" x2="0" y2="0" stroke="black" stroke-width="1" stroke-linecap="round" fill="none" />
<line x1="9070" y1="6047" x2="9070" y2="61" stroke="black" stroke-width="1" stroke-linecap="round" fill="none" />
<line x1="9070" y1="6047" x2="9070" y2="0" stroke="black" stroke-width="1" stroke-linecap="round" fill="none" />
<line x1="0" y1="0" x2="9070" y2="0" stroke="black" stroke-width="1" stroke-linecap="round" fill="none" />
</svg>
