<svg version="1.1" baseProfile="full" id="body" width="30.236in" height="20.157in" viewBox="0 0 9071 6047" preserveAspectRatio="none" xmlns="http://www.w3.org/2000/svg" xmlnsXlink="http://www.w3.org/1999/xlink">
<rect id="background" x="0" y="0" width="9071" height="6047" stroke="none" fill="white"/>
<line x1="1005" y1="5383" x2="7995" y2="5383" stroke="black" stroke-width="23" stroke-linecap="round" fill="none" />
<line x1="8163" y1="5383" x2="7995" y2="5307" stroke="black" stroke-width="23" stroke-linecap="round" fill="none" />
<line x1="8163" y1="5383" x2="7995" y2="5459" stroke="black" stroke-width="23" stroke-linecap="round" fill="none" />
<line x1="7995" y1="5459" x2="7995" y2="5307" stroke="black" stroke-width="23" stroke-linecap="round" fill="none" />
<polygon points="8393,5440 8406,5426 8385,5408 8375,5419 8354,5429 8336,5429 8326,5426 8321,5422 8317,5418 8312,5408 8312,5402 8312,5397 8317,5387 8321,5382 8326,5378 8342,5373 8361,5373 8361,5349 8343,5349 8329,5345 8324,5342 8319,5338 8315,5328 8315,5323 8315,5318 8318,5310 8321,5306 8324,5303 8335,5299 8351,5299 8369,5306 8379,5314 8400,5297 8389,5285 8360,5274 8329,5274 8308,5281 8301,5289 8293,5297 8286,5314 8286,5324 8286,5335 8298,5354 8310,5361 8296,5367 8282,5388 8282,5402 8282,5412 8289,5430 8297,5438 8304,5446 8327,5453 8361,5453 " stroke="none" fill="black" />
<polygon points="8495,5481 8502,5475 8508,5469 8517,5453 8519,5443 8498,5440 8497,5448 8492,5459 8488,5463 8484,5467 8474,5470 8461,5470 8449,5465 8444,5459 8439,5454 8435,5436 8435,5424 8435,5412 8439,5395 8444,5389 8449,5384 8462,5378 8474,5378 8483,5381 8487,5384 8490,5387 8495,5396 8497,5402 8517,5399 8515,5390 8507,5376 8501,5371 8494,5366 8478,5361 8461,5361 8446,5365 8440,5369 8433,5372 8423,5383 8420,5391 8417,5398 8414,5415 8414,5425 8414,5440 8421,5463 8429,5471 8436,5479 8456,5487 8478,5487 " stroke="none" fill="black" />
<path d="M8830,5349 H8741 V5378 H8830 Z M8894,5504 L8914,5468 L8922,5448 L8931,5428 L8939,5385 V5364 V5344 L8933,5307 L8927,5290 L8919,5269 L8897,5228 L8882,5208 H8861 L8871,5225 L8884,5249 L8887,5257 L8892,5268 L8899,5291 L8902,5303 L8906,5318 L8909,5349 V5364 V5403 L8885,5480 L8861,5519 H8882 Z M8694,5480 L8670,5403 V5364 V5348 L8673,5318 L8677,5303 L8680,5291 L8687,5267 L8692,5256 L8695,5249 L8708,5225 L8718,5208 H8697 L8682,5228 L8660,5269 L8652,5290 L8646,5307 L8640,5344 V5364 V5385 L8648,5428 L8657,5448 L8665,5468 L8685,5504 L8697,5519 H8718 Z " stroke="none" fill="black" />
<line x1="1005" y1="5383" x2="1005" y2="983" stroke="black" stroke-width="23" stroke-linecap="round" fill="none" />
<line x1="1005" y1="814" x2="929" y2="983" stroke="black" stroke-width="23" stroke-linecap="round" fill="none" />
<line x1="1005" y1="814" x2="1081" y2="983" stroke="black" stroke-width="23" stroke-linecap="round" fill="none" />
<line x1="1081" y1="983" x2="929" y2="983" stroke="black" stroke-width="23" stroke-linecap="round" fill="none" />
<path d="M787,641 H764 L746,633 L739,625 L732,616 L725,592 V575 V559 L732,534 L740,526 L747,518 L765,509 H788 L808,519 L814,528 L820,537 L827,561 V575 V591 L820,615 L813,624 L806,632 Z M821,654 L833,643 L845,632 L856,598 V575 V554 L846,523 L835,513 H882 V489 H803 L795,487 L782,485 H759 L731,496 L719,507 L707,518 L695,552 V575 V597 L707,631 L718,642 L729,654 L758,665 H792 Z " stroke="none" fill="black" />
<polygon points="970,693 977,687 984,681 992,665 994,654 974,652 973,660 968,671 964,675 960,678 950,682 936,682 924,676 919,671 915,665 910,648 910,636 910,624 915,606 920,601 924,595 937,590 950,590 958,593 962,596 966,599 971,608 972,614 992,611 990,602 982,588 976,583 970,578 954,573 936,573 922,577 915,580 909,584 899,595 895,602 892,609 889,626 889,636 889,651 896,674 904,683 912,691 931,699 954,699 " stroke="none" fill="black" />
<path d="M1306,561 H1216 V590 H1306 Z M1369,716 L1389,680 L1398,660 L1406,639 L1414,597 V575 V556 L1408,519 L1402,501 L1395,481 L1372,440 L1357,420 H1336 L1346,437 L1359,461 L1362,468 L1367,479 L1375,503 L1377,515 L1381,530 L1384,560 V575 V614 L1360,692 L1336,731 H1357 Z M1169,692 L1145,614 V575 V560 L1149,530 L1152,514 L1155,502 L1163,479 L1168,468 L1171,461 L1184,437 L1193,420 H1173 L1157,440 L1135,481 L1128,501 L1121,519 L1115,556 V575 V597 L1123,639 L1132,660 L1140,680 L1161,716 L1173,731 H1193 Z " stroke="none" fill="black" />
<path d="M4503,5683 L4516,5669 L4495,5651 L4485,5662 L4463,5673 H4446 L4435,5669 L4430,5665 L4426,5661 L4421,5651 V5645 V5640 L4426,5630 L4430,5625 L4435,5621 L4451,5616 H4468 L4470,5617 V5592 H4453 L4439,5589 L4434,5585 L4429,5581 L4424,5572 V5566 V5562 L4427,5553 L4431,5550 L4434,5546 L4444,5542 H4460 L4479,5549 L4489,5557 L4509,5540 L4498,5528 L4470,5517 H4439 L4417,5524 L4410,5532 L4403,5540 L4396,5557 V5567 V5579 L4408,5597 L4420,5604 L4405,5610 L4391,5631 V5645 V5656 L4399,5673 L4406,5681 L4413,5689 L4436,5697 H4470 Z M4365,5592 H4275 V5621 H4365 Z " stroke="none" fill="black" />
<path d="M4587,5713 H4572 L4559,5708 L4554,5702 L4549,5696 L4544,5679 V5667 V5656 L4549,5638 L4554,5633 L4559,5627 L4572,5621 H4587 L4600,5627 L4605,5633 L4610,5639 L4615,5655 V5667 V5678 L4610,5696 L4605,5702 L4600,5708 Z M4602,5727 L4609,5723 L4615,5719 L4625,5709 L4629,5702 L4632,5695 L4636,5677 V5666 V5651 L4628,5629 L4620,5621 L4612,5613 L4592,5604 H4568 L4549,5611 L4542,5618 L4532,5626 L4523,5651 V5667 V5683 L4531,5706 L4539,5714 L4546,5722 L4567,5730 H4587 Z " stroke="none" fill="black" />
<path d="M6894,5683 L6907,5669 L6886,5651 L6876,5662 L6855,5673 H6837 L6826,5669 L6822,5665 L6817,5661 L6813,5651 V5645 V5640 L6817,5630 L6822,5625 L6826,5621 L6842,5616 H6859 L6862,5617 V5592 H6844 L6830,5589 L6825,5585 L6820,5581 L6815,5572 V5566 V5562 L6819,5553 L6822,5550 L6825,5546 L6836,5542 H6851 L6870,5549 L6880,5557 L6901,5540 L6889,5528 L6861,5517 H6830 L6808,5524 L6801,5532 L6794,5540 L6787,5557 V5567 V5579 L6799,5597 L6811,5604 L6797,5610 L6782,5631 V5645 V5656 L6790,5673 L6797,5681 L6805,5689 L6827,5697 H6862 Z M6756,5592 H6667 V5621 H6756 Z " stroke="none" fill="black" />
<path d="M6996,5724 L7002,5718 L7009,5713 L7018,5696 L7019,5686 L6999,5683 L6998,5691 L6993,5702 L6989,5706 L6985,5710 L6975,5713 H6961 L6949,5708 L6945,5702 L6940,5697 L6935,5679 V5667 V5655 L6940,5638 L6945,5632 L6950,5627 L6962,5621 H6975 L6984,5624 L6987,5627 L6991,5630 L6996,5639 L6997,5646 L7017,5642 L7016,5633 L7008,5619 L7001,5614 L6995,5609 L6979,5604 H6961 L6947,5608 L6940,5612 L6934,5615 L6924,5626 L6921,5634 L6918,5641 L6914,5658 V5668 V5683 L6922,5706 L6929,5714 L6937,5722 L6957,5730 H6979 Z M7109,5720 L7116,5710 V5727 H7134 V5607 H7113 V5672 V5679 L7112,5691 L7110,5695 L7108,5699 L7103,5706 L7099,5708 L7095,5710 L7086,5713 H7077 L7069,5710 L7066,5708 L7063,5706 L7059,5699 L7058,5695 L7057,5693 V5682 V5674 V5607 H7036 V5682 V5688 L7037,5698 V5701 L7038,5705 L7041,5713 L7044,5716 L7046,5719 L7053,5724 L7057,5726 L7062,5728 L7072,5730 H7089 Z " stroke="none" fill="black" />
<path d="M810,5647 H775 L746,5635 L735,5622 L723,5610 L711,5576 V5555 V5528 L723,5490 L735,5478 L747,5467 L776,5455 H805 L826,5461 L835,5467 L845,5473 L859,5490 L864,5501 L869,5512 L874,5537 V5551 V5574 L862,5610 L851,5622 L839,5635 Z M837,5667 L850,5659 L864,5652 L884,5630 L891,5616 L899,5602 L906,5570 V5552 V5534 L899,5502 L892,5488 L885,5474 L865,5452 L852,5444 L839,5436 L809,5428 H768 L727,5445 L711,5462 L695,5478 L679,5525 V5554 V5570 L686,5600 L693,5614 L699,5628 L719,5650 L733,5658 L746,5666 L776,5674 H808 Z " stroke="none" fill="black" />
<path d="M2176,5683 L2189,5669 L2169,5651 L2159,5662 L2137,5673 H2120 L2109,5669 L2104,5665 L2100,5661 L2095,5651 V5645 V5640 L2100,5630 L2104,5625 L2109,5621 L2125,5616 H2141 L2144,5617 V5592 H2127 L2112,5589 L2107,5585 L2103,5581 L2098,5572 V5566 V5562 L2101,5553 L2104,5550 L2108,5546 L2118,5542 H2134 L2152,5549 L2162,5557 L2183,5540 L2172,5528 L2144,5517 H2112 L2091,5524 L2084,5532 L2077,5540 L2070,5557 V5567 V5579 L2081,5597 L2093,5604 L2079,5610 L2065,5631 V5645 V5656 L2072,5673 L2080,5681 L2087,5689 L2110,5697 H2144 Z M2039,5592 H1949 V5621 H2039 Z M2245,5495 V5455 H2211 V5495 L2219,5539 H2237 Z " stroke="none" fill="black" />
<path d="M2324,5713 H2309 L2296,5708 L2291,5702 L2286,5696 L2281,5679 V5667 V5656 L2286,5638 L2291,5633 L2296,5627 L2309,5621 H2324 L2337,5627 L2342,5633 L2347,5639 L2352,5655 V5667 V5678 L2347,5696 L2342,5702 L2337,5708 Z M2339,5727 L2346,5723 L2352,5719 L2362,5709 L2366,5702 L2369,5695 L2373,5677 V5666 V5651 L2365,5629 L2357,5621 L2349,5613 L2329,5604 H2305 L2287,5611 L2279,5618 L2269,5626 L2260,5651 V5667 V5683 L2268,5706 L2276,5714 L2284,5722 L2304,5730 H2324 Z " stroke="none" fill="black" />
<path d="M401,2516 H311 V2545 H401 Z M523,2599 H504 L490,2594 L483,2588 L477,2583 L468,2571 L466,2565 L464,2558 L463,2538 V2524 V2459 V2446 L464,2429 L465,2425 L466,2420 L473,2411 L479,2407 L484,2403 L497,2399 H513 L528,2404 L534,2410 L540,2415 L545,2428 V2436 V2446 L538,2461 L532,2466 L525,2471 L503,2477 H488 V2498 H503 L520,2500 L526,2503 L533,2505 L543,2514 L548,2521 L552,2527 L556,2542 V2551 V2561 L550,2578 L545,2585 L539,2592 Z M659,2467 H693 V2444 H659 V2429 V2421 L662,2410 L665,2407 L668,2405 L677,2402 H688 L696,2403 H701 L705,2378 L698,2376 L684,2375 H669 L654,2379 L648,2382 L643,2386 L636,2395 L634,2400 L632,2405 L630,2418 V2426 V2444 H605 V2467 H630 V2616 H659 Z M463,2595 L472,2607 L499,2620 H533 L560,2609 L569,2599 L578,2588 L587,2563 V2549 V2536 L579,2515 L571,2506 L564,2497 L542,2487 L528,2486 L537,2484 L552,2476 L559,2470 L566,2463 L572,2445 V2435 V2424 L564,2403 L556,2394 L547,2384 L523,2375 H495 L475,2380 L466,2385 L457,2390 L445,2403 L441,2411 L437,2418 L434,2440 V2454 V2682 H463 Z " stroke="none" fill="black" />
<path d="M787,2691 L793,2685 L800,2679 L808,2663 L810,2653 L790,2650 L789,2658 L784,2669 L780,2673 L776,2677 L766,2680 H752 L740,2675 L736,2669 L731,2664 L726,2646 V2634 V2622 L731,2605 L736,2599 L741,2594 L753,2588 H766 L775,2591 L778,2594 L782,2597 L787,2606 L788,2612 L808,2609 L806,2600 L798,2586 L792,2581 L786,2576 L770,2571 H752 L738,2575 L731,2579 L725,2582 L715,2593 L712,2600 L708,2608 L705,2625 V2635 V2650 L713,2673 L720,2681 L728,2689 L748,2697 H770 Z M881,2680 H867 L856,2675 L851,2669 L846,2663 L841,2646 V2634 V2622 L846,2605 L850,2599 L855,2594 L866,2588 H880 L892,2594 L896,2600 L901,2605 L906,2624 V2636 V2647 L901,2664 L897,2669 L892,2675 Z M900,2688 L906,2679 V2694 H925 V2528 H904 V2588 L902,2584 L895,2578 L890,2576 L886,2574 L877,2571 H864 L850,2575 L844,2579 L838,2583 L829,2594 L826,2602 L823,2609 L820,2625 V2634 V2643 L824,2660 L827,2667 L830,2674 L839,2685 L846,2689 L852,2693 L865,2697 H883 Z " stroke="none" fill="black" />
<path d="M367,1566 H277 V1595 H367 Z M474,1647 H454 L438,1638 L432,1629 L426,1620 L421,1596 V1580 V1565 L427,1540 L433,1532 L439,1523 L455,1515 H476 L492,1523 L499,1531 L505,1539 L511,1563 V1579 V1595 L504,1620 L498,1629 L491,1638 Z M510,1653 L517,1635 L518,1643 L524,1659 L527,1667 H556 L551,1655 L541,1612 L535,1581 L540,1556 L550,1513 L556,1495 H526 L523,1506 L518,1521 V1524 L512,1516 L500,1503 L494,1499 L488,1495 L471,1491 H445 L418,1503 L408,1514 L398,1526 L389,1559 V1580 V1601 L398,1634 L408,1646 L418,1658 L444,1671 H482 Z M626,1517 H660 V1495 H626 V1479 V1471 L629,1460 L632,1458 L635,1455 L644,1452 H655 L663,1453 L668,1454 L672,1428 L665,1427 L651,1425 H635 L621,1429 L615,1432 L610,1436 L603,1445 L600,1451 L599,1455 L597,1468 V1476 V1495 H572 V1517 H597 V1667 H626 Z " stroke="none" fill="black" />
<path d="M753,1741 L760,1736 L767,1730 L775,1713 L777,1703 L757,1700 L756,1708 L751,1719 L747,1723 L743,1727 L733,1731 H719 L707,1725 L702,1720 L698,1714 L693,1696 V1684 V1672 L698,1655 L703,1649 L708,1644 L720,1638 H733 L742,1641 L745,1644 L749,1647 L754,1657 L755,1663 L775,1660 L773,1650 L765,1636 L759,1631 L753,1626 L737,1621 H719 L705,1625 L698,1629 L692,1632 L682,1643 L679,1651 L675,1658 L672,1675 V1685 V1700 L680,1723 L687,1731 L695,1739 L715,1747 H737 Z M848,1731 H834 L823,1725 L818,1719 L813,1713 L808,1696 V1684 V1673 L813,1655 L817,1649 L822,1644 L833,1638 H847 L859,1644 L863,1650 L868,1656 L873,1674 V1686 V1697 L868,1714 L864,1720 L859,1725 Z M867,1738 L873,1729 V1745 H892 V1578 H871 V1638 L869,1634 L862,1628 L857,1626 L853,1624 L843,1621 H831 L817,1625 L811,1629 L805,1633 L796,1644 L793,1652 L790,1659 L787,1675 V1684 V1694 L790,1710 L794,1717 L797,1724 L806,1735 L812,1739 L819,1743 L832,1747 H850 Z " stroke="none" fill="black" />
<line x1="2201" y1="5383" x2="2201" y2="5309" stroke="black" stroke-width="5" stroke-linecap="round" fill="none" />
<line x1="2201" y1="5203" x2="2201" y2="5132" stroke="black" stroke-width="5" stroke-linecap="round" fill="none" />
<line x1="2201" y1="5026" x2="2201" y2="4955" stroke="black" stroke-width="5" stroke-linecap="round" fill="none" />
<line x1="2201" y1="4849" x2="2201" y2="4778" stroke="black" stroke-width="5" stroke-linecap="round" fill="none" />
<line x1="2201" y1="4672" x2="2201" y2="4601" stroke="black" stroke-width="5" stroke-linecap="round" fill="none" />
<line x1="2201" y1="4494" x2="2201" y2="4424" stroke="black" stroke-width="5" stroke-linecap="round" fill="none" />
<line x1="2201" y1="4317" x2="2201" y2="4246" stroke="black" stroke-width="5" stroke-linecap="round" fill="none" />
<line x1="2201" y1="4140" x2="2201" y2="4069" stroke="black" stroke-width="5" stroke-linecap="round" fill="none" />
<line x1="2201" y1="3963" x2="2201" y2="3892" stroke="black" stroke-width="5" stroke-linecap="round" fill="none" />
<line x1="2201" y1="3786" x2="2201" y2="3715" stroke="black" stroke-width="5" stroke-linecap="round" fill="none" />
<line x1="2201" y1="3609" x2="2201" y2="3538" stroke="black" stroke-width="5" stroke-linecap="round" fill="none" />
<line x1="2201" y1="3432" x2="2201" y2="3361" stroke="black" stroke-width="5" stroke-linecap="round" fill="none" />
<line x1="2201" y1="3254" x2="2201" y2="3184" stroke="black" stroke-width="5" stroke-linecap="round" fill="none" />
<line x1="2201" y1="3077" x2="2201" y2="3006" stroke="black" stroke-width="5" stroke-linecap="round" fill="none" />
<line x1="2201" y1="2900" x2="2201" y2="2829" stroke="black" stroke-width="5" stroke-linecap="round" fill="none" />
<line x1="2201" y1="2723" x2="2201" y2="2649" stroke="black" stroke-width="5" stroke-linecap="round" fill="none" />
<line x1="4414" y1="5383" x2="4414" y2="5260" stroke="black" stroke-width="5" stroke-linecap="round" fill="none" />
<line x1="4414" y1="5154" x2="4414" y2="5083" stroke="black" stroke-width="5" stroke-linecap="round" fill="none" />
<line x1="4414" y1="4977" x2="4414" y2="4906" stroke="black" stroke-width="5" stroke-linecap="round" fill="none" />
<line x1="4414" y1="4800" x2="4414" y2="4729" stroke="black" stroke-width="5" stroke-linecap="round" fill="none" />
<line x1="4414" y1="4622" x2="4414" y2="4552" stroke="black" stroke-width="5" stroke-linecap="round" fill="none" />
<line x1="4414" y1="4445" x2="4414" y2="4374" stroke="black" stroke-width="5" stroke-linecap="round" fill="none" />
<line x1="4414" y1="4268" x2="4414" y2="4197" stroke="black" stroke-width="5" stroke-linecap="round" fill="none" />
<line x1="4414" y1="4091" x2="4414" y2="4020" stroke="black" stroke-width="5" stroke-linecap="round" fill="none" />
<line x1="4414" y1="3914" x2="4414" y2="3843" stroke="black" stroke-width="5" stroke-linecap="round" fill="none" />
<line x1="4414" y1="3737" x2="4414" y2="3666" stroke="black" stroke-width="5" stroke-linecap="round" fill="none" />
<line x1="4414" y1="3560" x2="4414" y2="3489" stroke="black" stroke-width="5" stroke-linecap="round" fill="none" />
<line x1="4414" y1="3382" x2="4414" y2="3312" stroke="black" stroke-width="5" stroke-linecap="round" fill="none" />
<line x1="4414" y1="3205" x2="4414" y2="3134" stroke="black" stroke-width="5" stroke-linecap="round" fill="none" />
<line x1="4414" y1="3028" x2="4414" y2="2957" stroke="black" stroke-width="5" stroke-linecap="round" fill="none" />
<line x1="4414" y1="2851" x2="4414" y2="2780" stroke="black" stroke-width="5" stroke-linecap="round" fill="none" />
<line x1="4414" y1="2674" x2="4414" y2="2603" stroke="black" stroke-width="5" stroke-linecap="round" fill="none" />
<line x1="4414" y1="2497" x2="4414" y2="2426" stroke="black" stroke-width="5" stroke-linecap="round" fill="none" />
<line x1="4414" y1="2320" x2="4414" y2="2249" stroke="black" stroke-width="5" stroke-linecap="round" fill="none" />
<line x1="4414" y1="2142" x2="4414" y2="2072" stroke="black" stroke-width="5" stroke-linecap="round" fill="none" />
<line x1="4414" y1="1965" x2="4414" y2="1894" stroke="black" stroke-width="5" stroke-linecap="round" fill="none" />
<line x1="4414" y1="1788" x2="4414" y2="1665" stroke="black" stroke-width="5" stroke-linecap="round" fill="none" />
<line x1="6886" y1="5383" x2="6886" y2="5260" stroke="black" stroke-width="5" stroke-linecap="round" fill="none" />
<line x1="6886" y1="5154" x2="6886" y2="5083" stroke="black" stroke-width="5" stroke-linecap="round" fill="none" />
<line x1="6886" y1="4977" x2="6886" y2="4906" stroke="black" stroke-width="5" stroke-linecap="round" fill="none" />
<line x1="6886" y1="4800" x2="6886" y2="4729" stroke="black" stroke-width="5" stroke-linecap="round" fill="none" />
<line x1="6886" y1="4622" x2="6886" y2="4552" stroke="black" stroke-width="5" stroke-linecap="round" fill="none" />
<line x1="6886" y1="4445" x2="6886" y2="4374" stroke="black" stroke-width="5" stroke-linecap="round" fill="none" />
<line x1="6886" y1="4268" x2="6886" y2="4197" stroke="black" stroke-width="5" stroke-linecap="round" fill="none" />
<line x1="6886" y1="4091" x2="6886" y2="4020" stroke="black" stroke-width="5" stroke-linecap="round" fill="none" />
<line x1="6886" y1="3914" x2="6886" y2="3843" stroke="black" stroke-width="5" stroke-linecap="round" fill="none" />
<line x1="6886" y1="3737" x2="6886" y2="3666" stroke="black" stroke-width="5" stroke-linecap="round" fill="none" />
<line x1="6886" y1="3560" x2="6886" y2="3489" stroke="black" stroke-width="5" stroke-linecap="round" fill="none" />
<line x1="6886" y1="3382" x2="6886" y2="3312" stroke="black" stroke-width="5" stroke-linecap="round" fill="none" />
<line x1="6886" y1="3205" x2="6886" y2="3134" stroke="black" stroke-width="5" stroke-linecap="round" fill="none" />
<line x1="6886" y1="3028" x2="6886" y2="2957" stroke="black" stroke-width="5" stroke-linecap="round" fill="none" />
<line x1="6886" y1="2851" x2="6886" y2="2780" stroke="black" stroke-width="5" stroke-linecap="round" fill="none" />
<line x1="6886" y1="2674" x2="6886" y2="2603" stroke="black" stroke-width="5" stroke-linecap="round" fill="none" />
<line x1="6886" y1="2497" x2="6886" y2="2426" stroke="black" stroke-width="5" stroke-linecap="round" fill="none" />
<line x1="6886" y1="2320" x2="6886" y2="2249" stroke="black" stroke-width="5" stroke-linecap="round" fill="none" />
<line x1="6886" y1="2142" x2="6886" y2="2072" stroke="black" stroke-width="5" stroke-linecap="round" fill="none" />
<line x1="6886" y1="1965" x2="6886" y2="1894" stroke="black" stroke-width="5" stroke-linecap="round" fill="none" />
<line x1="6886" y1="1788" x2="6886" y2="1665" stroke="black" stroke-width="5" stroke-linecap="round" fill="none" />
<line x1="4414" y1="1665" x2="4357" y2="1665" stroke="black" stroke-width="5" stroke-linecap="round" fill="none" />
<line x1="4251" y1="1665" x2="4180" y2="1665" stroke="black" stroke-width="5" stroke-linecap="round" fill="none" />
<line x1="4074" y1="1665" x2="4003" y2="1665" stroke="black" stroke-width="5" stroke-linecap="round" fill="none" />
<line x1="3896" y1="1665" x2="3826" y2="1665" stroke="black" stroke-width="5" stroke-linecap="round" fill="none" />
<line x1="3719" y1="1665" x2="3648" y2="1665" stroke="black" stroke-width="5" stroke-linecap="round" fill="none" />
<line x1="3542" y1="1665" x2="3471" y2="1665" stroke="black" stroke-width="5" stroke-linecap="round" fill="none" />
<line x1="3365" y1="1665" x2="3294" y2="1665" stroke="black" stroke-width="5" stroke-linecap="round" fill="none" />
<line x1="3188" y1="1665" x2="3117" y2="1665" stroke="black" stroke-width="5" stroke-linecap="round" fill="none" />
<line x1="3011" y1="1665" x2="2940" y2="1665" stroke="black" stroke-width="5" stroke-linecap="round" fill="none" />
<line x1="2834" y1="1665" x2="2763" y2="1665" stroke="black" stroke-width="5" stroke-linecap="round" fill="none" />
<line x1="2656" y1="1665" x2="2586" y2="1665" stroke="black" stroke-width="5" stroke-linecap="round" fill="none" />
<line x1="2479" y1="1665" x2="2408" y2="1665" stroke="black" stroke-width="5" stroke-linecap="round" fill="none" />
<line x1="2302" y1="1665" x2="2231" y2="1665" stroke="black" stroke-width="5" stroke-linecap="round" fill="none" />
<line x1="2125" y1="1665" x2="2054" y2="1665" stroke="black" stroke-width="5" stroke-linecap="round" fill="none" />
<line x1="1948" y1="1665" x2="1877" y2="1665" stroke="black" stroke-width="5" stroke-linecap="round" fill="none" />
<line x1="1771" y1="1665" x2="1700" y2="1665" stroke="black" stroke-width="5" stroke-linecap="round" fill="none" />
<line x1="1593" y1="1665" x2="1523" y2="1665" stroke="black" stroke-width="5" stroke-linecap="round" fill="none" />
<line x1="1416" y1="1665" x2="1345" y2="1665" stroke="black" stroke-width="5" stroke-linecap="round" fill="none" />
<line x1="1239" y1="1665" x2="1168" y2="1665" stroke="black" stroke-width="5" stroke-linecap="round" fill="none" />
<line x1="1062" y1="1665" x2="1005" y2="1665" stroke="black" stroke-width="5" stroke-linecap="round" fill="none" />
<line x1="4414" y1="2649" x2="4357" y2="2649" stroke="black" stroke-width="5" stroke-linecap="round" fill="none" />
<line x1="4251" y1="2649" x2="4180" y2="2649" stroke="black" stroke-width="5" stroke-linecap="round" fill="none" />
<line x1="4074" y1="2649" x2="4003" y2="2649" stroke="black" stroke-width="5" stroke-linecap="round" fill="none" />
<line x1="3896" y1="2649" x2="3826" y2="2649" stroke="black" stroke-width="5" stroke-linecap="round" fill="none" />
<line x1="3719" y1="2649" x2="3648" y2="2649" stroke="black" stroke-width="5" stroke-linecap="round" fill="none" />
<line x1="3542" y1="2649" x2="3471" y2="2649" stroke="black" stroke-width="5" stroke-linecap="round" fill="none" />
<line x1="3365" y1="2649" x2="3294" y2="2649" stroke="black" stroke-width="5" stroke-linecap="round" fill="none" />
<line x1="3188" y1="2649" x2="3117" y2="2649" stroke="black" stroke-width="5" stroke-linecap="round" fill="none" />
<line x1="3011" y1="2649" x2="2940" y2="2649" stroke="black" stroke-width="5" stroke-linecap="round" fill="none" />
<line x1="2834" y1="2649" x2="2763" y2="2649" stroke="black" stroke-width="5" stroke-linecap="round" fill="none" />
<line x1="2656" y1="2649" x2="2586" y2="2649" stroke="black" stroke-width="5" stroke-linecap="round" fill="none" />
<line x1="2479" y1="2649" x2="2408" y2="2649" stroke="black" stroke-width="5" stroke-linecap="round" fill="none" />
<line x1="2302" y1="2649" x2="2231" y2="2649" stroke="black" stroke-width="5" stroke-linecap="round" fill="none" />
<line x1="2125" y1="2649" x2="2054" y2="2649" stroke="black" stroke-width="5" stroke-linecap="round" fill="none" />
<line x1="1948" y1="2649" x2="1877" y2="2649" stroke="black" stroke-width="5" stroke-linecap="round" fill="none" />
<line x1="1771" y1="2649" x2="1700" y2="2649" stroke="black" stroke-width="5" stroke-linecap="round" fill="none" />
<line x1="1593" y1="2649" x2="1523" y2="2649" stroke="black" stroke-width="5" stroke-linecap="round" fill="none" />
<line x1="1416" y1="2649" x2="1345" y2="2649" stroke="black" stroke-width="5" stroke-linecap="round" fill="none" />
<line x1="1239" y1="2649" x2="1168" y2="2649" stroke="black" stroke-width="5" stroke-linecap="round" fill="none" />
<line x1="1062" y1="2649" x2="1005" y2="2649" stroke="black" stroke-width="5" stroke-linecap="round" fill="none" />
<line x1="2201" y1="2649" x2="6886" y2="2649" stroke="black" stroke-width="23" stroke-linecap="round" fill="none" />
<line x1="4414" y1="1665" x2="6886" y2="1665" stroke="black" stroke-width="5" stroke-linecap="round" fill="none" />
<polyline points="2201,2649 2095,2751 1994,2856 1897,2966 1805,3079 1717,3195 1633,3315 1555,3439 1481,3565 1412,3694 1348,3825 1290,3959 1237,4095 1189,4233 1146,4373 1109,4514 1078,4657 1052,4801 1032,4946 1017,5091 1008,5237 1005,5383 " stroke="black" stroke-width="23" stroke-linecap="round" fill="none" />
<polyline points="4414,2649 4278,2648 4142,2652 4006,2661 3871,2676 3737,2696 3604,2722 3471,2753 3340,2790 3211,2832 3084,2878 2958,2930 2835,2988 2714,3050 2596,3116 2480,3188 2368,3264 2258,3345 2152,3430 2050,3519 1951,3612 1856,3710 1765,3811 1678,3915 1596,4023 1518,4134 1444,4249 1375,4366 1311,4486 1252,4608 1198,4733 1149,4859 1105,4988 1067,5118 1033,5250 1005,5383 " stroke="black" stroke-width="5" stroke-linecap="round" fill="none" />
<polyline points="4414,1665 4270,1681 4126,1702 3983,1729 3842,1761 3702,1799 3563,1842 3427,1891 3292,1944 3159,2003 3029,2067 2902,2136 2777,2210 2655,2289 2536,2372 2421,2460 2309,2553 2201,2649 " stroke="black" stroke-width="5" stroke-linecap="round" fill="none" />
<polyline points="1005,5351 1005,5367 1005,5383 " stroke="black" stroke-width="2" stroke-linecap="round" fill="none" />
<path d="M2062,2534 H2045 L2033,2530 L2028,2526 L2024,2523 L2019,2513 V2507 V2503 L2021,2496 L2023,2493 L2025,2490 L2031,2485 L2035,2484 L2039,2482 L2051,2479 L2060,2478 L2076,2476 L2100,2470 L2108,2467 V2478 V2487 L2105,2502 L2103,2507 L2100,2513 L2090,2523 L2084,2527 L2077,2531 Z M2072,2554 L2079,2551 L2087,2549 L2102,2539 L2110,2532 L2111,2538 L2114,2549 L2116,2553 H2147 L2144,2548 L2140,2538 L2139,2532 L2138,2527 L2137,2501 V2481 V2442 V2433 V2419 L2136,2415 L2135,2409 L2130,2399 L2127,2396 L2124,2392 L2113,2385 L2107,2382 L2100,2380 L2082,2377 H2060 L2040,2380 L2032,2383 L2023,2386 L2010,2395 L2006,2401 L2002,2406 L1995,2421 L1993,2430 L2022,2434 L2024,2425 L2031,2412 L2036,2409 L2041,2405 L2056,2401 H2078 L2094,2406 L2100,2411 L2104,2415 L2108,2427 V2436 V2437 V2441 V2444 L2100,2447 L2074,2452 L2056,2454 L2047,2455 L2034,2457 L2030,2458 L2024,2460 L2014,2465 L2009,2468 L2004,2471 L1997,2480 L1994,2485 L1991,2490 L1988,2501 V2508 V2519 L1996,2536 L2003,2543 L2011,2550 L2033,2557 H2056 Z " stroke="none" fill="black" />
<path d="M4461,1573 L4472,1561 L4483,1549 L4494,1515 V1493 V1483 L4491,1466 L4489,1458 L4486,1450 L4479,1436 L4474,1430 L4470,1424 L4458,1415 L4451,1412 L4444,1409 L4429,1405 H4407 L4383,1417 L4374,1429 V1344 H4345 V1581 H4372 V1560 L4380,1572 L4404,1585 H4435 Z M4427,1561 H4405 L4387,1550 L4380,1539 L4376,1532 L4371,1509 V1494 V1478 L4378,1454 L4385,1446 L4392,1438 L4409,1429 H4428 L4444,1437 L4451,1445 L4457,1453 L4464,1478 V1495 V1512 L4457,1536 L4450,1545 L4443,1553 Z " stroke="none" fill="black" />
<polygon points="6939,1566 6949,1557 6958,1549 6970,1526 6973,1511 6944,1507 6942,1518 6935,1534 6929,1540 6924,1545 6909,1550 6890,1550 6873,1542 6866,1534 6859,1526 6853,1501 6853,1484 6853,1467 6860,1442 6867,1434 6873,1426 6891,1418 6910,1418 6922,1423 6927,1427 6932,1431 6940,1444 6942,1453 6970,1449 6967,1436 6956,1416 6947,1408 6938,1401 6915,1394 6890,1394 6870,1399 6860,1405 6851,1410 6837,1426 6832,1436 6828,1446 6823,1471 6823,1485 6823,1506 6834,1539 6844,1551 6855,1562 6883,1574 6915,1574 " stroke="none" fill="black" />
<path d="M4559,2540 H4540 L4523,2532 L4516,2524 L4510,2515 L4503,2491 V2474 V2457 L4509,2432 L4516,2424 L4522,2416 L4538,2408 H4558 L4575,2416 L4582,2425 L4588,2433 L4595,2459 V2477 V2493 L4588,2516 L4582,2524 L4575,2532 Z M4587,2551 L4595,2538 V2560 H4622 V2323 H4593 V2408 L4589,2402 L4579,2394 L4573,2391 L4567,2387 L4553,2384 H4535 L4516,2390 L4507,2395 L4498,2401 L4485,2417 L4481,2427 L4477,2438 L4473,2461 V2474 V2487 L4477,2511 L4482,2521 L4487,2531 L4500,2547 L4509,2552 L4517,2558 L4536,2564 H4562 Z " stroke="none" fill="black" />
<path d="M6779,2557 L6789,2549 L6799,2542 L6812,2521 L6815,2508 L6785,2505 L6782,2514 L6773,2527 L6767,2531 L6762,2536 L6748,2540 H6729 L6711,2532 L6704,2525 L6697,2517 L6689,2496 L6688,2481 H6816 V2479 V2475 V2474 V2452 L6805,2419 L6794,2408 L6783,2396 L6755,2384 H6720 L6691,2396 L6680,2408 L6669,2420 L6658,2454 V2475 V2496 L6669,2529 L6680,2541 L6691,2552 L6721,2564 H6755 Z M6786,2457 H6690 V2446 L6698,2428 L6705,2421 L6711,2415 L6728,2408 H6749 L6768,2416 L6775,2425 L6779,2430 L6785,2447 Z " stroke="none" fill="black" />
<line x1="0" y1="6047" x2="9070" y2="6047" stroke="black" stroke-width="1" stroke-linecap="round" fill="none" />
<line x1="0" y1="6047" x2="0" y2="61" stroke="black" stroke-width="1" stroke-linecap="round" fill="none" />
<line x1="0" y1="6047" x2="0" y2="0" stroke="black" stroke-width="1" stroke-linecap="round" fill="none" />
<line x1="9070" y1="6047" x2="9070" y2="61" stroke="black" stroke-width="1" stroke-linecap="round" fill="none" />
<line x1="9070" y1="6047" x2="9070" y2="0" stroke="black" stroke-width="1" stroke-linecap="round" fill="none" />
<line x1="0" y1="0" x2="9070" y2="0" stroke="black" stroke-width="1" stroke-linecap="round" fill="none" />
</svg>
