
<svg version="1.1" baseProfile="full" id="body" width="30.236in" height="20.157in" viewBox="0 0 9071 6047" preserveAspectRatio="none" xmlns="http://www.w3.org/2000/svg" xmlnsXlink="http://www.w3.org/1999/xlink">
<rect id="background" x="0" y="0" width="9071" height="6047" stroke="none" fill="white"/>
<line x1="0" y1="6047" x2="9070" y2="6047" stroke="black" stroke-width="1" stroke-linecap="round" fill="none" />
<line x1="0" y1="6047" x2="0" y2="61" stroke="black" stroke-width="1" stroke-linecap="round" fill="none" />
<line x1="0" y1="6047" x2="0" y2="0" stroke="black" stroke-width="1" stroke-linecap="round" fill="none" />
<line x1="9070" y1="6047" x2="9070" y2="61" stroke="black" stroke-width="1" stroke-linecap="round" fill="none" />
<line x1="9070" y1="6047" x2="9070" y2="0" stroke="black" stroke-width="1" stroke-linecap="round" fill="none" />
<line x1="0" y1="0" x2="9070" y2="0" stroke="black" stroke-width="1" stroke-linecap="round" fill="none" />
<line x1="1058" y1="5476" x2="8300" y2="5476" stroke="black" stroke-width="23" stroke-linecap="round" fill="none" />
<line x1="8474" y1="5476" x2="8300" y2="5397" stroke="black" stroke-width="23" stroke-linecap="round" fill="none" />
<line x1="8474" y1="5476" x2="8300" y2="5555" stroke="black" stroke-width="23" stroke-linecap="round" fill="none" />
<line x1="8300" y1="5555" x2="8300" y2="5397" stroke="black" stroke-width="23" stroke-linecap="round" fill="none" />
<polygon points="8712,5533 8726,5519 8704,5500 8694,5511 8672,5522 8653,5522 8642,5518 8637,5514 8633,5510 8628,5500 8628,5494 8628,5488 8633,5478 8637,5473 8642,5469 8659,5464 8679,5464 8679,5439 8661,5439 8646,5435 8641,5431 8636,5427 8631,5418 8631,5412 8631,5407 8634,5399 8638,5395 8641,5391 8652,5387 8668,5387 8687,5395 8698,5402 8719,5385 8707,5373 8678,5361 8646,5361 8623,5369 8616,5377 8609,5385 8602,5403 8602,5413 8602,5425 8614,5444 8626,5451 8611,5457 8597,5479 8597,5494 8597,5505 8604,5523 8612,5531 8620,5539 8643,5547 8679,5547 " stroke="none" fill="black" />
<polygon points="8807,5579 8813,5577 8819,5574 8828,5567 8831,5562 8834,5558 8837,5548 8837,5542 8837,5537 8834,5528 8832,5524 8829,5521 8822,5515 8818,5513 8814,5511 8798,5506 8787,5503 8779,5501 8770,5499 8768,5498 8765,5497 8761,5494 8760,5492 8759,5491 8757,5487 8757,5485 8757,5482 8761,5476 8764,5474 8767,5471 8777,5469 8791,5469 8800,5472 8803,5474 8807,5477 8811,5485 8812,5489 8832,5487 8831,5481 8828,5471 8825,5467 8822,5464 8814,5458 8809,5456 8803,5454 8790,5452 8778,5452 8769,5453 8765,5454 8760,5455 8754,5458 8751,5460 8748,5463 8743,5469 8741,5472 8739,5476 8737,5483 8737,5487 8737,5492 8739,5500 8742,5504 8744,5508 8751,5514 8755,5516 8760,5518 8776,5523 8787,5526 8796,5528 8807,5532 8809,5533 8812,5535 8815,5541 8815,5545 8815,5549 8812,5556 8808,5559 8805,5562 8794,5565 8779,5565 8768,5561 8764,5558 8760,5554 8755,5545 8754,5539 8733,5542 8735,5552 8743,5567 8750,5572 8756,5577 8775,5582 8794,5582 " stroke="none" fill="black" />
<line x1="1058" y1="5476" x2="1058" y2="917" stroke="black" stroke-width="23" stroke-linecap="round" fill="none" />
<line x1="1058" y1="743" x2="980" y2="917" stroke="black" stroke-width="23" stroke-linecap="round" fill="none" />
<line x1="1058" y1="743" x2="1137" y2="917" stroke="black" stroke-width="23" stroke-linecap="round" fill="none" />
<line x1="1137" y1="917" x2="980" y2="917" stroke="black" stroke-width="23" stroke-linecap="round" fill="none" />
<path d="M833,561 H809 L790,553 L783,544 L775,536 L768,510 V493 V476 L776,451 L783,442 L790,434 L809,425 H833 L854,435 L860,444 L867,454 L873,478 V493 V509 L866,535 L859,544 L852,552 Z M867,575 L880,564 L892,552 L904,517 V493 V471 L893,439 L882,429 H930 V404 H849 L841,402 L827,400 H803 L774,411 L762,423 L749,434 L737,469 V493 V516 L749,551 L761,563 L772,574 L802,586 H838 Z " stroke="none" fill="black" />
<polygon points="1012,619 1017,616 1023,613 1032,606 1035,602 1038,597 1041,587 1041,582 1041,576 1039,567 1036,564 1034,560 1027,554 1022,552 1018,551 1002,546 991,543 983,541 974,538 972,537 970,536 966,533 964,532 963,530 962,526 962,524 962,521 965,515 968,513 971,511 981,508 995,508 1004,511 1008,514 1011,516 1015,524 1016,529 1037,526 1036,520 1032,510 1029,506 1027,503 1019,497 1013,495 1007,493 995,491 982,491 973,492 969,493 965,495 958,498 956,499 952,502 947,508 945,511 943,515 941,522 941,527 941,531 944,540 946,543 948,547 955,553 960,555 964,557 980,562 992,565 1000,568 1011,571 1013,573 1017,575 1020,580 1020,584 1020,588 1016,595 1013,598 1009,601 998,604 984,604 973,600 968,597 964,594 960,584 959,578 938,581 940,591 948,606 954,611 960,616 979,621 998,621 " stroke="none" fill="black" />
<polygon points="7039,5787 7052,5772 7031,5754 7020,5765 6998,5776 6980,5776 6969,5772 6964,5768 6960,5764 6955,5754 6955,5748 6955,5742 6959,5732 6964,5727 6969,5723 6985,5718 7005,5718 7005,5693 6987,5693 6973,5689 6968,5685 6963,5681 6958,5672 6958,5666 6958,5661 6961,5653 6964,5649 6968,5645 6978,5641 6995,5641 7014,5649 7024,5656 7046,5639 7034,5627 7005,5615 6973,5615 6950,5623 6943,5631 6936,5639 6928,5656 6928,5666 6928,5679 6941,5698 6953,5705 6938,5711 6923,5733 6923,5748 6923,5759 6931,5777 6939,5785 6947,5793 6970,5801 7006,5801 " stroke="none" fill="black" />
<path d="M7263,5825 L7271,5815 V5833 H7289 V5708 H7268 V5775 V5783 L7267,5795 L7265,5800 L7263,5804 L7257,5810 L7253,5813 L7249,5815 L7240,5818 H7230 L7223,5815 L7219,5813 L7216,5811 L7212,5804 L7211,5800 L7210,5797 V5786 V5778 V5708 H7188 V5786 V5792 L7189,5802 L7190,5805 L7191,5810 L7194,5818 L7196,5821 L7199,5824 L7206,5830 L7210,5832 L7215,5834 L7225,5836 H7244 Z M7134,5833 L7140,5831 L7146,5828 L7154,5821 L7158,5816 L7161,5812 L7164,5802 V5796 V5791 L7161,5782 L7159,5778 L7156,5775 L7149,5769 L7145,5767 L7140,5765 L7125,5760 L7113,5757 L7106,5755 L7096,5753 L7095,5752 L7092,5751 L7088,5748 L7087,5746 L7085,5745 L7084,5741 V5739 V5736 L7087,5730 L7090,5728 L7093,5725 L7104,5723 H7117 L7127,5726 L7130,5728 L7134,5731 L7138,5739 V5743 L7159,5741 L7158,5734 L7154,5725 L7152,5721 L7149,5718 L7141,5712 L7135,5710 L7130,5708 L7117,5706 H7105 L7096,5707 L7091,5708 L7087,5709 L7080,5712 L7078,5714 L7075,5717 L7069,5722 L7068,5726 L7066,5730 L7064,5737 V5741 V5746 L7066,5754 L7068,5758 L7071,5762 L7077,5768 L7082,5770 L7086,5772 L7103,5777 L7114,5780 L7123,5782 L7134,5786 L7136,5787 L7139,5789 L7142,5795 V5799 V5803 L7138,5810 L7135,5813 L7131,5816 L7121,5818 H7106 L7095,5815 L7091,5812 L7087,5808 L7082,5799 L7081,5793 L7060,5796 L7062,5806 L7070,5821 L7076,5826 L7083,5831 L7101,5836 H7121 Z " stroke="none" fill="black" />
<path d="M856,5750 H820 L790,5737 L778,5724 L766,5711 L754,5676 V5654 V5626 L766,5587 L779,5575 L791,5563 L821,5551 H850 L872,5557 L882,5563 L892,5570 L907,5587 L912,5598 L917,5609 L922,5636 V5651 V5674 L910,5711 L898,5724 L886,5737 Z M884,5770 L898,5762 L911,5755 L933,5732 L940,5718 L948,5703 L955,5669 V5651 V5632 L948,5599 L941,5585 L934,5570 L913,5548 L899,5539 L886,5531 L855,5523 H812 L770,5540 L753,5558 L737,5575 L720,5623 V5654 V5670 L727,5701 L734,5715 L741,5730 L762,5752 L776,5761 L789,5769 L821,5778 H854 Z " stroke="none" fill="black" />
<polygon points="2305,5804 2318,5790 2297,5771 2286,5782 2264,5793 2246,5793 2235,5789 2230,5785 2225,5781 2221,5771 2221,5765 2221,5759 2225,5749 2230,5744 2235,5740 2251,5735 2271,5735 2271,5710 2253,5710 2238,5706 2233,5702 2228,5698 2223,5689 2223,5683 2223,5678 2227,5670 2230,5666 2233,5662 2244,5658 2261,5658 2280,5666 2290,5674 2312,5656 2300,5644 2271,5632 2238,5632 2216,5640 2209,5648 2201,5656 2194,5674 2194,5684 2194,5696 2206,5715 2219,5722 2204,5728 2189,5750 2189,5765 2189,5776 2197,5794 2205,5802 2212,5810 2236,5818 2271,5818 " stroke="none" fill="black" />
<path d="M2513,5928 H2499 L2487,5922 L2482,5916 L2477,5910 L2472,5892 V5880 V5868 L2477,5850 L2482,5844 L2486,5838 L2498,5833 H2512 L2525,5839 L2530,5845 L2535,5851 L2539,5869 V5882 V5894 L2535,5911 L2530,5917 L2525,5922 Z M2364,5991 L2368,5988 L2372,5986 L2378,5978 L2381,5973 L2383,5969 L2389,5955 L2393,5945 L2440,5818 H2419 L2392,5891 L2390,5897 L2386,5912 L2384,5919 L2382,5911 L2377,5897 L2375,5890 L2349,5818 H2326 L2373,5943 V5945 L2372,5947 L2371,5948 L2369,5954 L2366,5962 L2365,5964 L2364,5966 L2360,5969 L2358,5970 L2356,5971 L2350,5973 H2344 L2338,5972 L2335,5971 L2337,5991 L2341,5992 L2348,5993 H2356 Z M2533,5936 L2539,5927 V5943 H2559 V5770 H2538 V5832 L2535,5828 L2528,5822 L2523,5820 L2519,5817 L2509,5815 H2496 L2482,5819 L2475,5823 L2469,5827 L2460,5839 L2457,5846 L2454,5854 L2451,5871 V5880 V5890 L2454,5907 L2457,5914 L2461,5922 L2471,5933 L2477,5937 L2483,5941 L2497,5945 H2516 Z " stroke="none" fill="black" />
<polygon points="396,1893 430,1893 430,1870 396,1870 396,1854 396,1845 399,1835 401,1832 404,1829 414,1826 425,1826 434,1827 439,1827 443,1801 435,1800 421,1798 405,1798 390,1802 384,1805 379,1809 371,1818 369,1824 367,1829 366,1842 366,1851 366,1870 339,1870 339,1893 366,1893 366,2048 396,2048 " stroke="none" fill="black" />
<path d="M630,2162 H617 L605,2156 L600,2150 L595,2144 L589,2126 V2114 V2102 L594,2084 L599,2078 L604,2072 L615,2067 H630 L642,2073 L647,2079 L652,2085 L657,2103 V2116 V2128 L652,2145 L647,2151 L642,2156 Z M482,2225 L485,2222 L489,2220 L495,2212 L498,2207 L500,2203 L506,2189 L510,2179 L557,2052 H536 L510,2125 L507,2132 L503,2146 L501,2153 L499,2145 L494,2131 L492,2124 L466,2052 H443 L490,2177 V2179 L489,2181 V2182 L486,2188 L483,2196 L482,2198 L481,2200 L477,2203 L475,2204 L473,2205 L467,2207 H461 L455,2206 L452,2205 L454,2225 L458,2226 L465,2227 H473 Z M650,2170 L656,2161 V2177 H676 V2004 H655 V2066 L652,2062 L645,2056 L641,2054 L636,2051 L626,2049 H613 L599,2053 L593,2057 L586,2061 L577,2073 L574,2080 L571,2088 L568,2105 V2114 V2124 L571,2141 L575,2148 L578,2156 L588,2167 L594,2171 L600,2175 L614,2179 H633 Z " stroke="none" fill="black" />
<polygon points="360,1252 395,1252 395,1229 360,1229 360,1212 360,1204 363,1193 366,1190 369,1187 379,1184 390,1184 399,1185 403,1186 408,1160 400,1158 386,1157 370,1157 354,1160 349,1164 343,1168 336,1177 334,1183 332,1187 330,1201 330,1210 330,1229 304,1229 304,1252 330,1252 330,1407 360,1407 " stroke="none" fill="black" />
<path d="M591,1457 L639,1410 H611 L561,1461 V1363 H540 V1535 H561 V1486 L576,1471 L618,1535 H644 Z M446,1583 L450,1581 L454,1578 L460,1571 L463,1566 L465,1562 L471,1548 L475,1537 L522,1410 H501 L474,1483 L472,1490 L468,1504 L466,1512 L464,1504 L459,1490 L457,1483 L431,1410 H408 L455,1535 V1537 L454,1540 L453,1541 L451,1547 L448,1555 L447,1556 L446,1558 L442,1562 L440,1563 L438,1564 L432,1565 H426 L420,1564 L417,1563 L419,1583 L423,1584 L430,1586 H438 Z " stroke="none" fill="black" />
<line x1="2464" y1="5476" x2="2464" y2="5419" stroke="black" stroke-width="2" stroke-linecap="round" fill="none" />
<line x1="2464" y1="5313" x2="2464" y2="5242" stroke="black" stroke-width="2" stroke-linecap="round" fill="none" />
<line x1="2464" y1="5136" x2="2464" y2="5065" stroke="black" stroke-width="2" stroke-linecap="round" fill="none" />
<line x1="2464" y1="4959" x2="2464" y2="4888" stroke="black" stroke-width="2" stroke-linecap="round" fill="none" />
<line x1="2464" y1="4781" x2="2464" y2="4711" stroke="black" stroke-width="2" stroke-linecap="round" fill="none" />
<line x1="2464" y1="4604" x2="2464" y2="4533" stroke="black" stroke-width="2" stroke-linecap="round" fill="none" />
<line x1="2464" y1="4427" x2="2464" y2="4356" stroke="black" stroke-width="2" stroke-linecap="round" fill="none" />
<line x1="2464" y1="4250" x2="2464" y2="4179" stroke="black" stroke-width="2" stroke-linecap="round" fill="none" />
<line x1="2464" y1="4073" x2="2464" y2="4002" stroke="black" stroke-width="2" stroke-linecap="round" fill="none" />
<line x1="2464" y1="3896" x2="2464" y2="3825" stroke="black" stroke-width="2" stroke-linecap="round" fill="none" />
<line x1="2464" y1="3719" x2="2464" y2="3648" stroke="black" stroke-width="2" stroke-linecap="round" fill="none" />
<line x1="2464" y1="3541" x2="2464" y2="3471" stroke="black" stroke-width="2" stroke-linecap="round" fill="none" />
<line x1="2464" y1="3364" x2="2464" y2="3293" stroke="black" stroke-width="2" stroke-linecap="round" fill="none" />
<line x1="2464" y1="3187" x2="2464" y2="3116" stroke="black" stroke-width="2" stroke-linecap="round" fill="none" />
<line x1="2464" y1="3010" x2="2464" y2="2939" stroke="black" stroke-width="2" stroke-linecap="round" fill="none" />
<line x1="2464" y1="2833" x2="2464" y2="2762" stroke="black" stroke-width="2" stroke-linecap="round" fill="none" />
<line x1="2464" y1="2656" x2="2464" y2="2585" stroke="black" stroke-width="2" stroke-linecap="round" fill="none" />
<line x1="2464" y1="2479" x2="2464" y2="2408" stroke="black" stroke-width="2" stroke-linecap="round" fill="none" />
<line x1="2464" y1="2301" x2="2464" y2="2230" stroke="black" stroke-width="2" stroke-linecap="round" fill="none" />
<line x1="2464" y1="2124" x2="2464" y2="2067" stroke="black" stroke-width="2" stroke-linecap="round" fill="none" />
<line x1="7150" y1="5476" x2="7150" y2="5435" stroke="black" stroke-width="2" stroke-linecap="round" fill="none" />
<line x1="7150" y1="5329" x2="7150" y2="5258" stroke="black" stroke-width="2" stroke-linecap="round" fill="none" />
<line x1="7150" y1="5152" x2="7150" y2="5081" stroke="black" stroke-width="2" stroke-linecap="round" fill="none" />
<line x1="7150" y1="4974" x2="7150" y2="4904" stroke="black" stroke-width="2" stroke-linecap="round" fill="none" />
<line x1="7150" y1="4797" x2="7150" y2="4726" stroke="black" stroke-width="2" stroke-linecap="round" fill="none" />
<line x1="7150" y1="4620" x2="7150" y2="4549" stroke="black" stroke-width="2" stroke-linecap="round" fill="none" />
<line x1="7150" y1="4443" x2="7150" y2="4372" stroke="black" stroke-width="2" stroke-linecap="round" fill="none" />
<line x1="7150" y1="4266" x2="7150" y2="4195" stroke="black" stroke-width="2" stroke-linecap="round" fill="none" />
<line x1="7150" y1="4089" x2="7150" y2="4018" stroke="black" stroke-width="2" stroke-linecap="round" fill="none" />
<line x1="7150" y1="3912" x2="7150" y2="3841" stroke="black" stroke-width="2" stroke-linecap="round" fill="none" />
<line x1="7150" y1="3734" x2="7150" y2="3664" stroke="black" stroke-width="2" stroke-linecap="round" fill="none" />
<line x1="7150" y1="3557" x2="7150" y2="3486" stroke="black" stroke-width="2" stroke-linecap="round" fill="none" />
<line x1="7150" y1="3380" x2="7150" y2="3309" stroke="black" stroke-width="2" stroke-linecap="round" fill="none" />
<line x1="7150" y1="3203" x2="7150" y2="3132" stroke="black" stroke-width="2" stroke-linecap="round" fill="none" />
<line x1="7150" y1="3026" x2="7150" y2="2955" stroke="black" stroke-width="2" stroke-linecap="round" fill="none" />
<line x1="7150" y1="2849" x2="7150" y2="2778" stroke="black" stroke-width="2" stroke-linecap="round" fill="none" />
<line x1="7150" y1="2671" x2="7150" y2="2601" stroke="black" stroke-width="2" stroke-linecap="round" fill="none" />
<line x1="7150" y1="2494" x2="7150" y2="2423" stroke="black" stroke-width="2" stroke-linecap="round" fill="none" />
<line x1="7150" y1="2317" x2="7150" y2="2246" stroke="black" stroke-width="2" stroke-linecap="round" fill="none" />
<line x1="7150" y1="2140" x2="7150" y2="2069" stroke="black" stroke-width="2" stroke-linecap="round" fill="none" />
<line x1="7150" y1="1963" x2="7150" y2="1892" stroke="black" stroke-width="2" stroke-linecap="round" fill="none" />
<line x1="7150" y1="1786" x2="7150" y2="1715" stroke="black" stroke-width="2" stroke-linecap="round" fill="none" />
<line x1="7150" y1="1609" x2="7150" y2="1538" stroke="black" stroke-width="2" stroke-linecap="round" fill="none" />
<line x1="7150" y1="1431" x2="7150" y2="1390" stroke="black" stroke-width="2" stroke-linecap="round" fill="none" />
<line x1="2743" y1="1390" x2="2663" y2="1390" stroke="black" stroke-width="2" stroke-linecap="round" fill="none" />
<line x1="2556" y1="1390" x2="2485" y2="1390" stroke="black" stroke-width="2" stroke-linecap="round" fill="none" />
<line x1="2379" y1="1390" x2="2308" y2="1390" stroke="black" stroke-width="2" stroke-linecap="round" fill="none" />
<line x1="2202" y1="1390" x2="2131" y2="1390" stroke="black" stroke-width="2" stroke-linecap="round" fill="none" />
<line x1="2025" y1="1390" x2="1954" y2="1390" stroke="black" stroke-width="2" stroke-linecap="round" fill="none" />
<line x1="1848" y1="1390" x2="1777" y2="1390" stroke="black" stroke-width="2" stroke-linecap="round" fill="none" />
<line x1="1671" y1="1390" x2="1600" y2="1390" stroke="black" stroke-width="2" stroke-linecap="round" fill="none" />
<line x1="1493" y1="1390" x2="1423" y2="1390" stroke="black" stroke-width="2" stroke-linecap="round" fill="none" />
<line x1="1316" y1="1390" x2="1245" y2="1390" stroke="black" stroke-width="2" stroke-linecap="round" fill="none" />
<line x1="1139" y1="1390" x2="1058" y2="1390" stroke="black" stroke-width="2" stroke-linecap="round" fill="none" />
<line x1="2464" y1="2067" x2="2346" y2="2067" stroke="black" stroke-width="2" stroke-linecap="round" fill="none" />
<line x1="2240" y1="2067" x2="2169" y2="2067" stroke="black" stroke-width="2" stroke-linecap="round" fill="none" />
<line x1="2062" y1="2067" x2="1992" y2="2067" stroke="black" stroke-width="2" stroke-linecap="round" fill="none" />
<line x1="1885" y1="2067" x2="1814" y2="2067" stroke="black" stroke-width="2" stroke-linecap="round" fill="none" />
<line x1="1708" y1="2067" x2="1637" y2="2067" stroke="black" stroke-width="2" stroke-linecap="round" fill="none" />
<line x1="1531" y1="2067" x2="1460" y2="2067" stroke="black" stroke-width="2" stroke-linecap="round" fill="none" />
<line x1="1354" y1="2067" x2="1283" y2="2067" stroke="black" stroke-width="2" stroke-linecap="round" fill="none" />
<line x1="1177" y1="2067" x2="1058" y2="2067" stroke="black" stroke-width="2" stroke-linecap="round" fill="none" />
<line x1="2464" y1="2067" x2="7150" y2="2067" stroke="black" stroke-width="23" stroke-linecap="round" fill="none" />
<polyline points="1058,5443 1058,5460 1058,5476 " stroke="black" stroke-width="23" stroke-linecap="round" fill="none" />
<line x1="1058" y1="5476" x2="2464" y2="2067" stroke="black" stroke-width="23" stroke-linecap="round" fill="none" />
<line x1="2743" y1="1390" x2="7150" y2="1390" stroke="black" stroke-width="2" stroke-linecap="round" fill="none" />
<line x1="1058" y1="5476" x2="1072" y2="5443" stroke="black" stroke-width="23" stroke-linecap="round" fill="none" />
<line x1="2464" y1="2067" x2="2743" y2="1390" stroke="black" stroke-width="2" stroke-linecap="round" fill="none" />
<path d="M4638,1326 L4650,1313 L4661,1301 L4672,1265 V1242 V1233 L4670,1215 L4667,1206 L4664,1198 L4657,1183 L4652,1177 L4648,1171 L4635,1162 L4628,1159 L4621,1155 L4605,1152 H4582 L4558,1164 L4548,1176 V1088 H4518 V1334 H4546 V1312 L4555,1325 L4580,1338 H4611 Z M4603,1313 H4581 L4562,1302 L4554,1290 L4550,1283 L4546,1260 V1244 V1227 L4553,1203 L4560,1194 L4567,1185 L4584,1177 H4604 L4621,1185 L4628,1193 L4635,1202 L4642,1227 V1245 V1262 L4634,1288 L4627,1296 L4620,1305 Z " stroke="none" fill="black" />
<path d="M4580,1915 H4562 L4549,1910 L4544,1906 L4540,1902 L4535,1892 V1886 V1882 L4537,1875 L4539,1872 L4541,1869 L4547,1864 L4551,1862 L4555,1861 L4568,1857 L4577,1856 L4594,1854 L4619,1848 L4627,1845 V1856 V1866 L4624,1881 L4622,1886 L4619,1893 L4609,1903 L4602,1907 L4595,1911 Z M4589,1935 L4597,1932 L4605,1929 L4621,1919 L4629,1912 L4630,1918 L4633,1929 L4635,1934 H4667 L4664,1929 L4660,1918 L4659,1913 L4658,1907 L4657,1881 V1859 V1819 V1809 V1795 L4656,1791 L4654,1785 L4650,1775 L4646,1771 L4643,1767 L4633,1760 L4625,1757 L4618,1755 L4600,1752 H4577 L4557,1755 L4548,1758 L4539,1761 L4526,1770 L4521,1776 L4517,1782 L4510,1797 L4508,1807 L4538,1811 L4540,1801 L4547,1788 L4553,1784 L4558,1781 L4573,1777 H4595 L4613,1782 L4618,1787 L4623,1791 L4627,1804 V1813 V1814 V1818 V1821 L4618,1824 L4591,1829 L4573,1831 L4564,1833 L4551,1835 L4546,1836 L4540,1838 L4529,1843 L4524,1846 L4520,1849 L4512,1858 L4509,1863 L4506,1869 L4503,1881 V1887 V1898 L4511,1917 L4519,1924 L4526,1931 L4549,1938 H4573 Z " stroke="none" fill="black" />
<line x1="1695" y1="3932" x2="1695" y2="4677" stroke="black" stroke-width="23" stroke-linecap="round" fill="none" />
<line x1="1695" y1="4677" x2="1388" y2="4677" stroke="black" stroke-width="23" stroke-linecap="round" fill="none" />
<polygon points="1571,4740 1551,4740 1547,4748 1534,4764 1524,4773 1515,4781 1493,4795 1480,4801 1480,4831 1487,4828 1503,4820 1512,4815 1521,4810 1535,4799 1541,4794 1541,4987 1571,4987 " stroke="none" fill="black" />
<polygon points="1970,4396 1819,4396 1819,4312 1955,4312 1955,4283 1819,4283 1819,4208 1965,4208 1965,4179 1787,4179 1787,4425 1970,4425 " stroke="none" fill="black" />
<polygon points="2063,4461 2068,4459 2074,4456 2083,4449 2086,4444 2089,4440 2092,4430 2092,4425 2092,4419 2090,4410 2087,4406 2085,4403 2078,4397 2073,4395 2069,4393 2053,4389 2042,4386 2034,4383 2025,4381 2023,4380 2021,4379 2017,4376 2015,4374 2014,4373 2013,4369 2013,4367 2013,4364 2016,4358 2019,4356 2022,4353 2033,4351 2046,4351 2055,4354 2059,4356 2062,4359 2066,4367 2067,4371 2088,4369 2087,4363 2083,4353 2080,4349 2078,4346 2070,4340 2064,4338 2058,4336 2046,4334 2033,4334 2024,4335 2020,4336 2016,4337 2009,4340 2007,4342 2003,4345 1998,4351 1996,4354 1994,4358 1992,4365 1992,4370 1992,4374 1995,4382 1997,4386 1999,4390 2006,4396 2011,4398 2015,4400 2031,4405 2043,4408 2051,4410 2062,4414 2064,4415 2068,4418 2071,4423 2071,4427 2071,4431 2067,4438 2064,4441 2060,4444 2049,4447 2035,4447 2024,4443 2020,4440 2016,4437 2011,4427 2010,4421 1989,4424 1991,4434 1999,4449 2005,4454 2011,4459 2030,4464 2049,4464 " stroke="none" fill="black" />
</svg>
